<?xml version="1.0" encoding="utf-8"?>
<!-- Generated by IcoMoon.io -->
<!DOCTYPE svg PUBLIC "-//W3C//DTD SVG 1.1//EN" "http://www.w3.org/Graphics/SVG/1.1/DTD/svg11.dtd">
<svg version="1.1" xmlns="http://www.w3.org/2000/svg" xmlns:xlink="http://www.w3.org/1999/xlink" width="884" height="104" viewBox="0 0 884 104">
<svg id="awsicon-AWSAutoScalingGroup" width="52" height="52" viewBox="0 0 52 52" x="0" y="0">
<path fill="rgb(157, 81, 37)" d="M19.679 17.618h2.339v1.323h-2.339v-1.323z"></path>
<path fill="rgb(157, 81, 37)" d="M29.886 17.618h2.337v1.323h-2.337v-1.323z"></path>
<path fill="rgb(157, 81, 37)" d="M29.886 21.857v1.323l-3.165 3.264v-1.324z"></path>
<path fill="rgb(157, 81, 37)" d="M25.319 25.119v1.324l-3.3-3.372v-1.324z"></path>
<path fill="rgb(157, 81, 37)" d="M35.822 28.185h5.419v1.324h-5.419v-1.324z"></path>
<path fill="rgb(157, 81, 37)" d="M10.759 28.185h5.419v1.324h-5.419v-1.324z"></path>
<path fill="rgb(157, 81, 37)" d="M35.822 31.352v1.325l-6.362-6.268v-1.324z"></path>
<path fill="rgb(244, 131, 52)" d="M16.178 18.893l6.362 6.261-6.362 6.197v-3.167h-5.419v-6.131h5.419z"></path>
<path fill="rgb(157, 81, 37)" d="M22.54 25.154v1.323l-6.362 6.199v-1.325z"></path>
<path fill="rgb(244, 131, 52)" d="M35.822 18.893v3.168h5.419v6.124h-5.419v3.167l-6.362-6.267z"></path>
<path fill="rgb(157, 81, 37)" d="M32.223 33.059v1.324l-6.306 6.315-0.298-1.617z"></path>
<path fill="rgb(157, 81, 37)" d="M25.917 39.373v1.325l-6.238-6.315v-1.324z"></path>
<path fill="rgb(244, 131, 52)" d="M25.986 11.301l6.237 6.316h-2.337v4.239l-3.165 3.262 3.165 3.352v4.587h2.337l-6.306 6.314-6.238-6.314h2.339v-4.54l3.3-3.4-3.3-3.372v-4.129h-2.339z"></path>
</svg>
<svg id="awsicon-AWSAutoScalingLaunchConfiguration" width="52" height="52" viewBox="0 0 52 52" x="52" y="0">
<path fill="rgb(245, 133, 54)" d="M35.026 11.27c2.608 0 4.713 2.099 4.713 4.686v18.452c0 2.588-2.106 4.686-4.713 4.686h-18.044c-2.607 0-4.722-2.098-4.722-4.686v-18.452c0-2.587 2.114-4.686 4.722-4.686h18.044z"></path>
<path fill="rgb(157, 80, 37)" d="M39.74 34.408v1.635c0 0.228-0.017 0.452-0.048 0.671v-1.635c0.031-0.219 0.048-0.444 0.048-0.671z"></path>
<path fill="rgb(157, 80, 37)" d="M39.692 35.080v1.635c-0.038 0.26-0.098 0.513-0.175 0.758v-1.635c0.079-0.245 0.137-0.498 0.175-0.758z"></path>
<path fill="rgb(157, 80, 37)" d="M39.517 35.837v1.635c-0.094 0.29-0.212 0.564-0.358 0.825v-1.636c0.146-0.261 0.264-0.536 0.358-0.824z"></path>
<path fill="rgb(157, 80, 37)" d="M39.161 36.661v1.636c-0.8 1.449-2.35 2.433-4.133 2.433v-1.635c1.784 0.001 3.333-0.983 4.133-2.433z"></path>
<path fill="rgb(157, 80, 37)" d="M39.74 34.408v1.635c0 2.589-2.106 4.687-4.713 4.687v-1.636c2.607-0.001 4.713-2.099 4.713-4.687z"></path>
<path fill="rgb(157, 80, 37)" d="M16.787 39.095h18.272v1.636h-18.272v-1.636z"></path>
<path fill="rgb(157, 80, 37)" d="M17.177 39.095v1.636c-2.607 0-4.917-2.098-4.917-4.687v-1.635c0 2.588 2.114 4.686 4.722 4.686z"></path>
<path fill="rgb(157, 80, 37)" d="M16.982 39.095v1.636c-2.607 0-4.722-2.098-4.722-4.687v-1.635c0 2.588 2.115 4.686 4.722 4.686z"></path>
<path fill="rgb(255, 255, 255)" d="M16.173 19.11h19.5v2.6h-19.5v-2.6z"></path>
<path fill="rgb(255, 255, 255)" d="M16.173 24.44h19.5v2.6h-19.5v-2.6z"></path>
<path fill="rgb(255, 255, 255)" d="M16.25 29.64h19.5v2.6h-19.5v-2.6z"></path>
</svg>
<svg id="awsicon-AWSEC2AMI" width="52" height="52" viewBox="0 0 52 52" x="104" y="0">
<path fill="rgb(157, 80, 37)" d="M39.812 36.752v1.543c0 0.12-0.009 0.238-0.025 0.354v-1.543c0.017-0.115 0.025-0.234 0.025-0.354z"></path>
<path fill="rgb(157, 80, 37)" d="M39.787 37.105v1.543c-0.020 0.137-0.051 0.27-0.093 0.399v-1.543c0.042-0.129 0.072-0.262 0.093-0.399z"></path>
<path fill="rgb(157, 80, 37)" d="M39.695 37.504v1.543c-0.049 0.151-0.112 0.296-0.188 0.434v-1.543c0.076-0.137 0.139-0.282 0.188-0.434z"></path>
<path fill="rgb(157, 80, 37)" d="M39.507 37.938v1.543c-0.421 0.762-1.233 1.279-2.17 1.279v-1.543c0.938 0 1.75-0.517 2.17-1.279z"></path>
<path fill="rgb(157, 80, 37)" d="M39.812 36.752v1.543c0 1.36-1.106 2.465-2.476 2.465v-1.543c1.371 0 2.476-1.106 2.476-2.465z"></path>
<path fill="rgb(157, 80, 37)" d="M14.663 39.217v1.543c-1.37 0-2.476-1.105-2.476-2.465v-1.543c0.001 1.359 1.106 2.465 2.476 2.465z"></path>
<path fill="rgb(157, 80, 37)" d="M37.904 38.824l-0.568 1.936h-22.673l-0.512-1.769z"></path>
<path fill="rgb(245, 133, 54)" d="M37.337 11.24c1.37 0 2.476 1.105 2.476 2.465v23.046c0 1.359-1.106 2.465-2.476 2.465h-22.673c-1.37 0-2.476-1.106-2.476-2.465v-23.046c0-1.36 1.106-2.465 2.476-2.465h22.673z"></path>
<path fill="rgb(255, 255, 255)" d="M17.236 15.958h17.507v8.251h-17.507v-8.251z"></path>
<path fill="rgb(245, 133, 53)" d="M18.573 17.322h4.153v5.526h-4.153v-5.526z"></path>
<path fill="rgb(245, 133, 53)" d="M23.912 17.322h4.155v5.526h-4.155v-5.526z"></path>
<path fill="rgb(245, 133, 53)" d="M29.253 17.322h4.155v5.526h-4.155v-5.526z"></path>
<path fill="rgb(255, 255, 255)" d="M17.236 27.010h17.507v8.252h-17.507v-8.252z"></path>
<path fill="rgb(245, 133, 53)" d="M18.573 28.373h4.153v5.526h-4.153v-5.526z"></path>
<path fill="rgb(245, 133, 53)" d="M23.912 28.373h4.155v5.526h-4.155v-5.526z"></path>
<path fill="rgb(245, 133, 53)" d="M29.253 28.373h4.155v5.526h-4.155v-5.526z"></path>
</svg>
<svg id="awsicon-AWSEC2EBSVolume" width="52" height="52" viewBox="0 0 52 52" x="156" y="0">
<path fill="rgb(157, 80, 37)" d="M39.813 36.752v1.543c0 0.119-0.010 0.238-0.025 0.354v-1.543c0.016-0.115 0.025-0.235 0.025-0.354z"></path>
<path fill="rgb(157, 80, 37)" d="M39.787 37.105v1.543c-0.020 0.137-0.051 0.27-0.093 0.399v-1.543c0.042-0.129 0.072-0.262 0.093-0.4z"></path>
<path fill="rgb(157, 80, 37)" d="M39.695 37.504v1.543c-0.049 0.151-0.112 0.296-0.188 0.434v-1.543c0.076-0.138 0.139-0.282 0.188-0.434z"></path>
<path fill="rgb(157, 80, 37)" d="M39.507 37.938v1.543c-0.421 0.762-1.233 1.279-2.17 1.279v-1.543c0.938 0 1.75-0.517 2.17-1.279z"></path>
<path fill="rgb(157, 80, 37)" d="M39.813 36.752v1.543c0 1.359-1.106 2.464-2.477 2.464v-1.543c1.371 0 2.477-1.106 2.477-2.465z"></path>
<path fill="rgb(157, 80, 37)" d="M14.663 39.217v1.543c-1.37 0-2.476-1.105-2.476-2.464v-1.543c0.001 1.359 1.106 2.465 2.476 2.465z"></path>
<path fill="rgb(157, 80, 37)" d="M37.904 38.824l-0.568 1.936h-22.673l-0.512-1.769z"></path>
<path fill="rgb(245, 133, 54)" d="M37.337 11.24c1.37 0 2.476 1.105 2.476 2.465v23.046c0 1.359-1.106 2.465-2.476 2.465h-22.673c-1.37 0-2.476-1.106-2.476-2.465v-23.046c0-1.36 1.106-2.465 2.476-2.465h22.673z"></path>
<path fill="rgb(245, 133, 53)" d="M18.573 17.322h4.153v5.526h-4.153v-5.526z"></path>
<path fill="rgb(245, 133, 53)" d="M23.912 17.322h4.155v5.526h-4.155v-5.526z"></path>
<path fill="rgb(245, 133, 53)" d="M29.253 17.322h4.155v5.526h-4.155v-5.526z"></path>
<path fill="rgb(245, 133, 53)" d="M18.573 28.373h4.153v5.526h-4.153v-5.526z"></path>
<path fill="rgb(245, 133, 53)" d="M23.912 28.373h4.155v5.526h-4.155v-5.526z"></path>
<path fill="rgb(245, 133, 53)" d="M29.253 28.373h4.155v5.526h-4.155v-5.526z"></path>
<path fill="rgb(186, 186, 186)" d="M33.039 33.223c0 0.966-0.691 1.749-1.542 1.749h-10.862c-0.852 0-1.542-0.783-1.542-1.749v-13.245c0-0.966 0.691-1.749 1.542-1.749h10.862c0.852 0 1.542 0.783 1.542 1.749v13.245z"></path>
<path fill="rgb(255, 255, 255)" d="M33.039 31.533c0 0.966-0.691 1.749-1.542 1.749h-10.862c-0.852 0-1.542-0.783-1.542-1.749v-13.245c0-0.966 0.691-1.749 1.542-1.749h10.862c0.852 0 1.542 0.783 1.542 1.749v13.245z"></path>
</svg>
<svg id="awsicon-AWSEC2EIP" width="52" height="52" viewBox="0 0 52 52" x="208" y="0">
<path fill="rgb(157, 80, 37)" d="M43.655 24.518v2.948l-3.201 1.2-1.321-3.294z"></path>
<path fill="rgb(157, 80, 37)" d="M15.915 25.704h16.123v2.947h-16.123v-2.947z"></path>
<path fill="rgb(157, 81, 37)" d="M16.013 25.704v2.947l-0.002 0.005v-2.948l0.002-0.004z"></path>
<path fill="rgb(157, 81, 37)" d="M16.035 25.651v2.948c-0.077 0.242-0.202 0.53-0.323 0.748v-2.948c0.121-0.218 0.222-0.45 0.298-0.692z"></path>
<path fill="rgb(157, 81, 37)" d="M15.712 26.399v2.948c-0.664 1.207-1.945 2.023-3.434 2.023-2.176 0-3.933-1.748-3.933-3.904v-2.948c0 2.157 1.758 3.905 3.933 3.905 1.489-0.001 2.77-0.817 3.434-2.024z"></path>
<path fill="rgb(157, 80, 37)" d="M16.013 25.704v2.947c-0.505 1.58-1.974 2.72-3.735 2.72-2.176 0-3.933-1.748-3.933-3.904v-2.948c0 2.157 1.758 3.905 3.933 3.905 1.76 0 3.23-1.139 3.735-2.72z"></path>
<path fill="rgb(245, 133, 54)" d="M32.038 20.204l11.617 4.314-2.909 1.077-0.138 0.064-0.121 0.044-8.449 3.145v-3.145h-16.025c-0.505 1.58-1.974 2.72-3.735 2.72-2.176 0-3.933-1.748-3.933-3.905s1.758-3.89 3.933-3.89c1.76 0 3.23 1.14 3.735 2.72h16.025v-3.144z"></path>
<path fill="rgb(157, 80, 37)" d="M40.487 25.704v2.947l-8.449 3.145v-2.947z"></path>
</svg>
<svg id="awsicon-AWSEC2Instance" width="52" height="52" viewBox="0 0 52 52" x="260" y="0">
<path fill="rgb(245, 133, 54)" d="M35.026 11.27c2.608 0 4.713 2.099 4.713 4.686v18.452c0 2.588-2.106 4.686-4.713 4.686h-18.045c-2.607 0-4.722-2.098-4.722-4.686v-18.452c0-2.587 2.114-4.686 4.722-4.686h18.045z"></path>
<path fill="rgb(157, 80, 37)" d="M39.74 34.408v1.635c0 0.228-0.017 0.452-0.048 0.671v-1.635c0.031-0.219 0.048-0.444 0.048-0.671z"></path>
<path fill="rgb(157, 80, 37)" d="M39.692 35.080v1.635c-0.038 0.26-0.098 0.513-0.175 0.758v-1.635c0.078-0.245 0.137-0.498 0.175-0.758z"></path>
<path fill="rgb(157, 80, 37)" d="M39.517 35.837v1.635c-0.093 0.289-0.212 0.564-0.357 0.825v-1.636c0.145-0.261 0.264-0.536 0.357-0.824z"></path>
<path fill="rgb(157, 80, 37)" d="M39.16 36.661v1.636c-0.8 1.449-2.349 2.433-4.133 2.433v-1.635c1.784 0.001 3.334-0.983 4.133-2.433z"></path>
<path fill="rgb(157, 80, 37)" d="M39.74 34.408v1.635c0 2.588-2.106 4.686-4.713 4.686v-1.635c2.607 0 4.713-2.099 4.713-4.686z"></path>
<path fill="rgb(157, 80, 37)" d="M16.787 39.095h18.272v1.635h-18.272v-1.635z"></path>
<path fill="rgb(157, 80, 37)" d="M17.177 39.095v1.635c-2.607 0-4.917-2.098-4.917-4.686v-1.635c0 2.588 2.114 4.686 4.722 4.686z"></path>
<path fill="rgb(157, 80, 37)" d="M16.982 39.095v1.635c-2.607 0-4.722-2.098-4.722-4.686v-1.635c0 2.588 2.115 4.686 4.722 4.686z"></path>
</svg>
<svg id="awsicon-AWSEC2Region" width="52" height="52" viewBox="0 0 52 52" x="312" y="0">
<path fill="#444444" d="M25.755 41.444c-2.264-0.009-4.505-0.148-6.48-0.401l0.199-1.548c1.913 0.245 4.087 0.38 6.288 0.388l-0.006 1.561zM26.835 41.438l-0.021-1.56c2.221-0.031 4.392-0.191 6.278-0.462l0.223 1.544c-1.951 0.281-4.191 0.447-6.479 0.478zM18.197 40.89c-2.39-0.375-5.446-1.103-6.429-2.441l1.258-0.923c0.373 0.509 2.014 1.29 5.413 1.824l-0.242 1.54zM34.392 40.789l-0.27-1.537c3.93-0.69 4.861-1.623 4.881-1.817l1.56-0.029v0.029c0 1.506-2.076 2.634-6.171 3.353zM12.977 36.971h-1.56v-6.398h1.56v6.398zM40.563 36.341h-1.56v-6.398h1.56v6.398zM12.977 29.507h-1.56v-6.398h1.56v6.398zM40.563 28.877h-1.56v-6.398h1.56v6.398zM12.977 22.043h-1.56v-6.398h1.56v6.398zM40.563 21.413h-1.56v-6.398h1.56v6.398zM11.417 14.579v-0.015c0-1.504 2.071-2.632 6.157-3.35l0.27 1.537c-3.918 0.69-4.847 1.621-4.867 1.814l-1.56 0.014zM38.951 14.471c-0.381-0.508-2.031-1.29-5.425-1.821l0.242-1.541c2.383 0.373 5.432 1.097 6.43 2.426l-1.247 0.937zM18.873 12.586l-0.223-1.544c1.953-0.282 4.193-0.448 6.479-0.48l0.022 1.56c-2.22 0.032-4.391 0.192-6.278 0.464zM32.492 12.503c-1.916-0.245-4.090-0.379-6.288-0.386l0.006-1.56c2.261 0.008 4.501 0.146 6.48 0.399l-0.198 1.547z"></path>
</svg>
<svg id="awsicon-AWSEC2SecurityGroup" width="52" height="52" viewBox="0 0 52 52" x="364" y="0">
<path fill="rgb(245, 133, 54)" d="M35.026 11.27c2.608 0 4.713 2.099 4.713 4.686v18.452c0 2.588-2.106 4.686-4.713 4.686h-18.044c-2.607 0-4.722-2.098-4.722-4.686v-18.452c0-2.587 2.114-4.686 4.722-4.686h18.044z"></path>
<path fill="rgb(157, 80, 37)" d="M39.74 34.408v1.635c0 0.228-0.017 0.452-0.048 0.671v-1.635c0.031-0.219 0.048-0.444 0.048-0.671z"></path>
<path fill="rgb(157, 80, 37)" d="M39.692 35.080v1.635c-0.038 0.26-0.098 0.513-0.175 0.758v-1.635c0.079-0.245 0.137-0.498 0.175-0.758z"></path>
<path fill="rgb(157, 80, 37)" d="M39.517 35.837v1.635c-0.094 0.29-0.212 0.564-0.358 0.825v-1.636c0.146-0.261 0.264-0.536 0.358-0.824z"></path>
<path fill="rgb(157, 80, 37)" d="M39.161 36.661v1.636c-0.8 1.449-2.35 2.433-4.133 2.433v-1.635c1.784 0.001 3.333-0.983 4.133-2.433z"></path>
<path fill="rgb(157, 80, 37)" d="M39.74 34.408v1.635c0 2.589-2.106 4.688-4.713 4.688v-1.636c2.607-0.001 4.713-2.1 4.713-4.687z"></path>
<path fill="rgb(157, 80, 37)" d="M16.787 39.095h18.272v1.636h-18.272v-1.636z"></path>
<path fill="rgb(157, 80, 37)" d="M17.177 39.095v1.636c-2.607 0-4.917-2.098-4.917-4.687v-1.635c0 2.588 2.114 4.686 4.722 4.686z"></path>
<path fill="rgb(157, 80, 37)" d="M16.982 39.095v1.636c-2.607 0-4.722-2.098-4.722-4.687v-1.635c0 2.588 2.115 4.686 4.722 4.686z"></path>
<path fill="rgb(255, 255, 255)" d="M34.509 31.942v-1.779c-0.125-1.172-1.134-2.083-2.347-2.083-1.216 0-2.227 0.906-2.347 2.083v1.779h-1.215v3.944h7.089v-3.944h-1.18zM33.361 31.942h-2.415l0.008-1.779c0 0-0.001-1.090 1.207-1.086 1.156 0.003 1.207 1.086 1.207 1.086l-0.007 1.779z"></path>
<path fill="rgb(255, 255, 255)" d="M17.94 18.46h16.839v2.080h-16.839v-2.080z"></path>
<path fill="rgb(255, 255, 255)" d="M17.94 24.18h16.839v2.080h-16.839v-2.080z"></path>
<path fill="rgb(255, 255, 255)" d="M17.94 29.903h8.419v2.080h-8.419v-2.080z"></path>
</svg>
<svg id="awsicon-AWSELB" width="52" height="52" viewBox="0 0 52 52" x="416" y="0">
<path fill="rgb(245, 133, 54)" d="M26.444 11.117c7.941 0.238 14.186 6.813 13.95 14.697-0.237 7.875-6.864 14.068-14.806 13.83-7.935-0.238-14.179-6.818-13.943-14.693 0.237-7.884 6.865-14.072 14.799-13.834z"></path>
<path fill="rgb(157, 80, 37)" d="M39.584 30.127l-0.037 1.24c-0.306 0.868-0.695 1.695-1.158 2.474l0.037-1.24c0.462-0.78 0.852-1.607 1.158-2.474z"></path>
<path fill="rgb(157, 80, 37)" d="M38.427 32.601l-0.037 1.24c-2.574 4.349-7.399 7.205-12.84 7.042-7.935-0.238-14.179-6.818-13.943-14.694l0.037-1.239c-0.236 7.875 6.009 14.454 13.943 14.693 5.442 0.163 10.266-2.692 12.84-7.042z"></path>
<path fill="rgb(157, 80, 37)" d="M40.393 25.814l-0.037 1.239c-0.021 0.693-0.091 1.37-0.207 2.033l0.037-1.24c0.116-0.664 0.186-1.341 0.207-2.032z"></path>
<path fill="rgb(157, 80, 37)" d="M40.186 27.846l-0.037 1.24c-0.139 0.784-0.34 1.549-0.601 2.281l0.037-1.24c0.261-0.733 0.462-1.496 0.601-2.281z"></path>
<path fill="rgb(157, 80, 37)" d="M40.393 25.814l-0.037 1.239c-0.237 7.876-6.865 14.069-14.806 13.831-7.935-0.239-14.179-6.818-13.943-14.694l0.037-1.239c-0.236 7.875 6.009 14.454 13.943 14.693 7.942 0.238 14.57-5.955 14.806-13.829z"></path>
<path fill="rgb(255, 255, 255)" d="M35.356 20.54h-4.68v-0.931l-1.453 1.833-0.668-0.944-6.596 4.203h5.597v-0.999l3.12 1.167v-1.727h4.68v4.68h-4.68v-1.727l-3.12 1.167v-0.999h-5.596l6.655 4.202 0.607-0.977 1.453 1.866v-0.931h4.68v4.68h-4.68v-1.871l-3.233-0.778 0.442-0.939-8.129-5.259v3.126h-5.2v-7.8h5.2v3.125l8.189-5.258-0.502-0.938 3.233-0.778v-1.871h4.68v4.68z"></path>
</svg>
<svg id="awsicon-AWSRDSDBInstance" width="52" height="52" viewBox="0 0 52 52" x="468" y="0">
<path fill="rgb(157, 80, 37)" d="M27.171 24.178v1.355c-0.027 0.047-0.049 0.097-0.065 0.145v-1.355c0.016-0.048 0.038-0.097 0.065-0.145z"></path>
<path fill="rgb(157, 80, 37)" d="M27.106 24.323v1.355c-0.007 0.024-0.015 0.049-0.021 0.073v-1.355c0.006-0.025 0.014-0.049 0.021-0.073z"></path>
<path fill="rgb(157, 80, 37)" d="M39.572 24.854c-1.943-0.643-4.071-0.727-5.88-0.727-2.641 0-5.978 0.605-6.626 1.503l-0.025-1.237c0.24-1.089 3.355-2.014 6.102-2.014 0.928 0 5.105 0.424 6.442 1.116z"></path>
<path fill="rgb(245, 133, 54)" d="M34.107 25.36c1.141 0 2.111 0.089 2.912 0.217 1.717 0.285 2.624 0.773 2.624 1.073s-0.908 0.789-2.624 1.067c-0.801 0.135-1.77 0.218-2.912 0.218-3.586 0-5.538-0.849-5.538-1.285s1.952-1.291 5.538-1.291z"></path>
<path fill="rgb(157, 80, 37)" d="M39.643 26.651v1.457c0 0.008-0.001 0.016-0.001 0.024v-1.458c0-0.008 0.001-0.015 0.001-0.023z"></path>
<path fill="rgb(157, 80, 37)" d="M39.642 26.674v1.458c-0.001 0.010-0.004 0.020-0.008 0.031v-1.458c0.005-0.010 0.007-0.021 0.008-0.031z"></path>
<path fill="rgb(157, 80, 37)" d="M39.634 26.705v1.458c-0.005 0.014-0.011 0.030-0.019 0.044v-1.458c0.008-0.014 0.014-0.029 0.019-0.044z"></path>
<path fill="rgb(157, 80, 37)" d="M39.615 26.748v1.458c-0.165 0.301-1.055 0.719-2.596 0.968-0.801 0.136-1.77 0.217-2.912 0.217-3.586 0-5.538-0.847-5.538-1.284v-1.457c0 0.436 1.952 1.285 5.538 1.285 1.141 0 2.111-0.083 2.912-0.218 1.54-0.25 2.43-0.667 2.596-0.969z"></path>
<path fill="rgb(157, 80, 37)" d="M39.643 26.651v1.457c0 0.302-0.908 0.789-2.624 1.067-0.801 0.136-1.77 0.217-2.912 0.217-3.586 0-5.538-0.847-5.538-1.284v-1.457c0 0.436 1.952 1.285 5.538 1.285 1.141 0 2.111-0.083 2.912-0.218 1.717-0.277 2.624-0.766 2.624-1.067z"></path>
<path fill="rgb(157, 80, 37)" d="M28.58 37.241c0.056 0.283 1.465 0.512 2.156 0.848l-0.934 2.14c-0.867-0.292-1.12-0.477-1.23-0.648z"></path>
<path fill="rgb(157, 80, 37)" d="M39.733 38.065v1.455c0 0.010 0 0.021-0.002 0.032v-1.457c0.002-0.011 0.002-0.022 0.002-0.031z"></path>
<path fill="rgb(157, 80, 37)" d="M39.731 38.096v1.457c-0.001 0.012-0.005 0.025-0.009 0.038v-1.458c0.004-0.013 0.008-0.025 0.009-0.037z"></path>
<path fill="rgb(157, 80, 37)" d="M39.722 38.134v1.458c-0.007 0.020-0.015 0.041-0.029 0.062v-1.457c0.013-0.021 0.021-0.043 0.029-0.063z"></path>
<path fill="rgb(157, 80, 37)" d="M39.694 38.185v1.457c-0.261 0.463-1.844 1.151-5.224 1.151-2.034 0-3.681-0.264-4.68-0.556l-0.359-1.942c0.999 0.293 3.005 1.043 5.039 1.043 3.38-0.001 4.963-0.688 5.224-1.152z"></path>
<path fill="rgb(157, 80, 37)" d="M39.733 38.065v1.455c0 0.451-1.543 1.284-5.264 1.284-2.034 0-3.571-0.24-4.68-0.581v-1.457c1.109 0.341 2.646 0.581 4.68 0.581 3.721 0 5.264-0.833 5.264-1.283z"></path>
<path fill="rgb(157, 80, 37)" d="M14.429 38.732v1.355c-1.154 0-2.090-0.928-2.155-2.081v-1.355c0.066 1.152 1.002 2.081 2.155 2.081z"></path>
<path fill="rgb(157, 80, 37)" d="M27.873 38.719v1.354l-13.541 0.015v-1.355z"></path>
<path fill="rgb(245, 133, 54)" d="M39.592 23.667c-1.98-0.691-5.231-0.716-6.159-0.704-2.714 0.036-5.805 0.68-6.323 1.484l-0.021 0.16 0.008 0.495-0.008 12.912c0 0.238 0.501 0.496 0.711 0.706l-13.451 0.013c-1.154 0-2.090-0.929-2.090-2.081v-23.379c0-1.146 0.936-2.074 2.090-2.074l23.235-0.002c1.155 0 2.091 0.929 2.091 2.081z"></path>
<path fill="rgb(245, 133, 54)" d="M39.742 29.174l-0.008 8.89c0 0.45-1.543 1.283-5.264 1.283-2.034 0-3.571-0.24-4.569-0.533-0.74-0.24-1.264-0.51-1.322-0.712v-8.845c1.082 0.668 3.312 1.021 5.529 1.021h0.143c0.233-0.007 0.454-0.007 0.681-0.015l0.092-0.007c0.196-0.008 0.378-0.015 0.567-0.031 0.098-0.007 0.189-0.014 0.28-0.022 0.15-0.015 0.293-0.022 0.438-0.037 0.084-0.015 0.16-0.022 0.236-0.037 0.159-0.015 0.31-0.036 0.468-0.060 1.211-0.196 2.149-0.518 2.731-0.894z"></path>
</svg>
<svg id="awsicon-AWSRDSDBSubnetGroup" width="52" height="52" viewBox="0 0 52 52" x="520" y="0">
<path fill="rgb(245, 133, 54)" d="M33.62 40.82h-3.714v-1.56h3.714c0.747 0 1.47-0.148 2.15-0.44l0.616 1.434c-0.876 0.375-1.806 0.566-2.765 0.566zM28.867 40.82h-6.24v-1.56h6.24v1.56zM21.587 40.82h-3.151c-1.164 0-2.317-0.291-3.335-0.841l0.742-1.372c0.791 0.427 1.687 0.654 2.593 0.654h3.151v1.56zM37.417 39.706l-0.845-1.311c1.571-1.011 2.508-2.729 2.508-4.595v-5.321h1.56v5.321c0 2.398-1.205 4.606-3.223 5.906zM14.123 39.339c-1.72-1.341-2.707-3.36-2.707-5.539v-0.564h1.56v0.564c0 1.695 0.768 3.265 2.106 4.309l-0.959 1.23zM12.976 32.196h-1.56v-6.24h1.56v6.24zM40.64 27.439h-1.56v-6.24h1.56v6.24zM12.976 24.916h-1.56v-6.24h1.56v6.24zM40.64 20.159h-1.56v-1.544c0-1.391-0.523-2.716-1.473-3.73l1.138-1.067c1.222 1.305 1.895 3.009 1.895 4.797v1.544zM13.043 17.761l-1.541-0.242c0.372-2.369 1.907-4.362 4.108-5.331l0.629 1.427c-1.712 0.754-2.906 2.304-3.195 4.145zM36.932 14.275c-0.957-0.732-2.103-1.119-3.312-1.119h-2.17v-1.56h2.17c1.555 0 3.027 0.498 4.259 1.44l-0.947 1.239zM17.097 13.321l-0.381-1.513c0.56-0.141 1.138-0.213 1.721-0.213h4.694v1.56h-4.694c-0.453 0-0.905 0.056-1.34 0.165zM30.41 13.155h-6.24v-1.56h6.24v1.56z"></path>
<path fill="rgb(255, 255, 255)" d="M26.131 18.843c4.128 0 7.476 0.815 7.476 1.822s-3.347 1.822-7.476 1.822-7.476-0.815-7.476-1.822c0-1.006 3.347-1.822 7.476-1.822z"></path>
<path fill="rgb(245, 133, 54)" d="M26.131 23.266c-0.845 0-8.256-0.073-8.256-2.602s7.411-2.602 8.256-2.602 8.256 0.073 8.256 2.602c0 2.529-7.411 2.602-8.256 2.602zM19.56 20.664c0.64 0.417 2.895 1.042 6.57 1.042s5.93-0.625 6.57-1.042c-0.639-0.418-2.894-1.042-6.57-1.042s-5.931 0.625-6.57 1.042z"></path>
<path fill="rgb(245, 133, 54)" d="M17.875 20.664h1.56v12.15h-1.56v-12.15z"></path>
<path fill="rgb(245, 133, 54)" d="M32.826 20.664h1.56v12.15h-1.56v-12.15z"></path>
<path fill="rgb(245, 133, 54)" d="M26.129 35.418c-0.845 0-8.257-0.073-8.257-2.603 0-2.529 7.412-2.602 8.257-2.602s8.257 0.073 8.257 2.602c0 2.53-7.412 2.603-8.257 2.603zM19.558 32.815c0.642 0.419 2.897 1.043 6.571 1.043s5.929-0.625 6.571-1.043c-0.642-0.418-2.897-1.043-6.571-1.043s-5.929 0.625-6.571 1.042z"></path>
<path fill="rgb(245, 133, 54)" d="M18.861 21.833c0 0 6.258 2.284 14.848 0l-0.561 10.29c0 0-4.011 2.759-14.393 0.693l0.106-10.983z"></path>
<path fill="rgb(245, 133, 54)" d="M25.87 34.363c-2.212 0-4.657-0.263-7.267-0.783l-0.634-0.126 0.122-12.733 1.037 0.379c0.025 0.009 2.725 0.968 6.913 0.968 2.487 0 4.999-0.333 7.467-0.989l1.038-0.276-0.64 11.745-0.316 0.217c-0.095 0.065-2.384 1.597-7.72 1.597zM19.542 32.172c2.27 0.419 4.397 0.631 6.328 0.631 3.726 0 5.784-0.795 6.523-1.154l0.479-8.805c-2.264 0.521-4.557 0.784-6.831 0.784-2.949 0-5.189-0.44-6.411-0.755l-0.089 9.299z"></path>
</svg>
<svg id="awsicon-AWSVPCCustomerGateway" width="52" height="52" viewBox="0 0 52 52" x="572" y="0">
<path fill="rgb(157, 80, 37)" d="M27.403 14.818v1.232l-1.946-4.846v-1.233z"></path>
<path fill="rgb(157, 80, 37)" d="M25.957 22.853h8.417v1.232h-8.417v-1.232z"></path>
<path fill="rgb(245, 133, 54)" d="M25.457 9.97c7.387 0.255 13.332 6.054 13.753 13.341l-4.838-1.912v1.453h-8.416v-8.036h1.446l-1.946-4.847z"></path>
<path fill="rgb(157, 80, 37)" d="M39.211 23.312v1.234l-4.837-1.915v-1.231z"></path>
<path fill="rgb(157, 80, 37)" d="M25.957 33.634h1.446v1.233h-1.446v-1.233z"></path>
<path fill="rgb(245, 133, 54)" d="M39.23 24.538c-0.21 7.451-6.207 13.455-13.695 13.748l1.868-4.651h-1.446v-8.271h8.417v1.093l4.856-1.918z"></path>
<path fill="rgb(157, 80, 37)" d="M39.23 24.538v1.232c-0.014 0.549-0.062 1.091-0.139 1.624v-1.233c0.077-0.532 0.125-1.075 0.139-1.623z"></path>
<path fill="rgb(157, 80, 37)" d="M39.091 26.161v1.233c-0.113 0.785-0.291 1.548-0.528 2.286v-1.232c0.238-0.738 0.415-1.503 0.528-2.287z"></path>
<path fill="rgb(157, 80, 37)" d="M38.563 28.448v1.232c-0.278 0.866-0.639 1.696-1.072 2.481v-1.233c0.433-0.784 0.794-1.615 1.072-2.48z"></path>
<path fill="rgb(157, 80, 37)" d="M37.491 30.928v1.233c-2.337 4.236-6.792 7.154-11.956 7.356v-1.232c5.163-0.202 9.618-3.121 11.956-7.357z"></path>
<path fill="rgb(157, 80, 37)" d="M39.23 24.538v1.232c-0.21 7.452-6.207 13.454-13.695 13.748v-1.232c7.489-0.293 13.485-6.297 13.695-13.748z"></path>
<path fill="rgb(157, 80, 37)" d="M22.519 33.634h1.44v1.233h-1.44v-1.233z"></path>
<path fill="rgb(245, 133, 54)" d="M10.706 24.862l4.415 1.746v-1.244h8.838v8.271h-1.44l1.87 4.651c-7.379-0.285-13.306-6.119-13.682-13.423z"></path>
<path fill="rgb(157, 80, 37)" d="M24.389 38.285v1.232c-7.379-0.287-13.306-6.118-13.682-13.423v-1.232c0.376 7.304 6.303 13.138 13.682 13.423z"></path>
<path fill="rgb(157, 80, 37)" d="M24.466 9.97v1.233l-1.947 4.846v-1.232z"></path>
<path fill="rgb(157, 80, 37)" d="M15.121 22.853h8.838v1.232h-8.838v-1.232z"></path>
<path fill="rgb(245, 133, 54)" d="M24.466 9.97l-1.947 4.847h1.44v8.036h-8.838v-1.2l-4.415 1.746c0.376-7.331 6.349-13.175 13.76-13.43z"></path>
<path fill="rgb(157, 80, 37)" d="M15.121 21.654v1.231l-4.415 1.748v-1.233z"></path>
</svg>
<svg id="awsicon-AWSVPCInternetGateway" width="52" height="52" viewBox="0 0 52 52" x="624" y="0">
<path fill="rgb(245, 133, 54)" d="M25.996 11.11c7.945 0 14.384 6.384 14.384 14.271 0 7.878-6.439 14.268-14.384 14.268-7.938 0-14.377-6.389-14.377-14.268 0-7.887 6.439-14.271 14.377-14.271z"></path>
<path fill="rgb(157, 80, 37)" d="M39.703 29.717v1.24c-0.279 0.877-0.644 1.714-1.083 2.507v-1.24c0.438-0.793 0.803-1.631 1.083-2.507z"></path>
<path fill="rgb(157, 80, 37)" d="M38.62 32.225v1.24c-2.442 4.424-7.18 7.424-12.623 7.424-7.938 0-14.377-6.389-14.377-14.268v-1.239c0 7.878 6.439 14.268 14.377 14.268 5.443-0.001 10.18-3 12.623-7.425z"></path>
<path fill="rgb(157, 80, 37)" d="M40.381 25.382v1.239c0 0.693-0.050 1.372-0.146 2.038v-1.24c0.097-0.667 0.146-1.346 0.146-2.037z"></path>
<path fill="rgb(157, 80, 37)" d="M40.234 27.419v1.24c-0.116 0.788-0.293 1.558-0.532 2.298v-1.24c0.239-0.74 0.416-1.509 0.532-2.298z"></path>
<path fill="rgb(157, 80, 37)" d="M40.381 25.382v1.239c0 7.879-6.439 14.268-14.384 14.268-7.938 0-14.377-6.389-14.377-14.268v-1.239c0 7.878 6.439 14.268 14.377 14.268 7.945-0.001 14.384-6.39 14.384-14.268z"></path>
<path fill="rgb(255, 255, 255)" d="M14.071 26.921v-0.38c0-1.551 1.183-3.605 2.93-4.361 0.136-3.384 2.953-6.095 6.393-6.095 2.291 0 4.399 1.227 5.534 3.174 0.44-0.19 0.915-0.289 1.403-0.289 1.746 0 3.189 1.235 3.486 2.894 2.385 0.469 4.11 2.753 4.11 4.676v0.38c0 2.341-2.425 4.395-5.189 4.395h-13.478c-2.764 0.001-5.19-2.053-5.19-4.394z"></path>
<path fill="rgb(245, 133, 54)" d="M29.252 20.926l-1.008 0.692-0.501-1.112c-0.77-1.702-2.476-2.801-4.348-2.801-1.275 0-2.47 0.495-3.368 1.394-0.903 0.9-1.398 2.104-1.398 3.379l0.020 0.883-0.749 0.216c-1.217 0.349-2.198 1.908-2.198 2.965v0.38c0 1.284 1.555 2.777 3.56 2.777h13.478c2.004 0 3.559-1.493 3.559-2.777v-0.38c0-1.292-1.44-2.992-3.123-3.135l-0.903-0.075-0.030-0.901c-0.033-1.030-0.874-1.84-1.91-1.84-0.388 0.001-0.763 0.116-1.081 0.336z"></path>
</svg>
<svg id="awsicon-AWSVPCNetworkAcl" width="52" height="52" viewBox="0 0 52 52" x="676" y="0">
<path fill="#444444" d="M33.62 40.82h-3.714v-1.56h3.714c0.747 0 1.47-0.148 2.15-0.44l0.616 1.434c-0.876 0.375-1.806 0.566-2.765 0.566zM28.867 40.82h-6.24v-1.56h6.24v1.56zM21.587 40.82h-3.151c-1.164 0-2.317-0.291-3.335-0.841l0.742-1.372c0.791 0.427 1.687 0.654 2.593 0.654h3.151v1.56zM37.417 39.706l-0.845-1.311c1.571-1.011 2.508-2.729 2.508-4.595v-5.321h1.56v5.321c0 2.398-1.205 4.606-3.223 5.906zM14.123 39.339c-1.72-1.341-2.707-3.36-2.707-5.539v-0.564h1.56v0.564c0 1.695 0.768 3.265 2.106 4.309l-0.959 1.23zM12.976 32.196h-1.56v-6.24h1.56v6.24zM40.64 27.439h-1.56v-6.24h1.56v6.24zM12.976 24.916h-1.56v-6.24h1.56v6.24zM40.64 20.159h-1.56v-1.544c0-1.391-0.523-2.716-1.473-3.73l1.138-1.067c1.222 1.305 1.895 3.009 1.895 4.797v1.544zM13.043 17.761l-1.541-0.242c0.372-2.369 1.907-4.362 4.108-5.331l0.629 1.427c-1.712 0.754-2.906 2.304-3.195 4.145zM36.932 14.275c-0.957-0.732-2.103-1.119-3.312-1.119h-2.17v-1.56h2.17c1.555 0 3.027 0.498 4.259 1.44l-0.947 1.239zM17.097 13.321l-0.381-1.513c0.56-0.141 1.138-0.213 1.721-0.213h4.694v1.56h-4.694c-0.453 0-0.905 0.056-1.34 0.165zM30.41 13.155h-6.24v-1.56h6.24v1.56z"></path>
<path fill="#444444" d="M33.729 32.072v-1.779c-0.125-1.172-1.136-2.083-2.347-2.083-1.216 0-2.227 0.906-2.348 2.083v1.779h-1.214v3.944h7.089v-3.944h-1.18zM32.581 32.072h-2.415l0.008-1.779c0 0-0.001-1.090 1.207-1.086 1.156 0.003 1.207 1.086 1.207 1.086l-0.007 1.779z"></path>
<path fill="#444444" d="M17.16 18.59h16.839v2.080h-16.839v-2.080z"></path>
<path fill="#444444" d="M17.16 24.31h16.839v2.080h-16.839v-2.080z"></path>
<path fill="#444444" d="M17.16 30.033h8.419v2.080h-8.419v-2.080z"></path>
</svg>
<svg id="awsicon-AWSVPCNetworkInterface" width="52" height="52" viewBox="0 0 52 52" x="728" y="0">
<path fill="rgb(245, 133, 54)" d="M26 11.786c7.58 0 13.724 6.093 13.724 13.622 0 7.522-6.144 13.623-13.724 13.623-7.578 0-13.724-6.101-13.724-13.623 0-7.53 6.146-13.622 13.724-13.622z"></path>
<path fill="rgb(157, 80, 37)" d="M38.044 31.945v1.182c-2.331 4.223-6.852 7.087-12.044 7.087-7.578 0-13.724-6.1-13.724-13.622v-1.182c0 7.522 6.145 13.623 13.724 13.623 5.193 0 9.714-2.867 12.044-7.087z"></path>
<path fill="rgb(157, 80, 37)" d="M39.724 25.409v1.182c0 0.662-0.047 1.311-0.139 1.947v-1.182c0.093-0.637 0.139-1.286 0.139-1.947z"></path>
<path fill="rgb(157, 80, 37)" d="M39.585 27.356v1.182c-0.11 0.752-0.278 1.486-0.506 2.196v-1.184c0.228-0.708 0.396-1.442 0.506-2.194z"></path>
<path fill="rgb(157, 80, 37)" d="M39.079 29.55v1.184c-0.271 0.835-0.617 1.636-1.035 2.393v-1.182c0.419-0.759 0.764-1.56 1.035-2.395z"></path>
<path fill="rgb(157, 80, 37)" d="M39.724 25.409v1.182c0 7.523-6.144 13.622-13.724 13.622-7.578 0-13.724-6.1-13.724-13.622v-1.182c0 7.522 6.145 13.623 13.724 13.623s13.724-6.101 13.724-13.623z"></path>
<path fill="rgb(255, 255, 255)" d="M16.579 18.968v0.994h1.235v10.892h-1.235v0.995h2.387v-12.882z"></path>
<path fill="rgb(255, 255, 255)" d="M35.314 20.4h-15.199v8.492h1.415v1.714h6.473v-1.714h2.362v1.714h2.852v-1.714h2.096z"></path>
<path fill="rgb(217, 167, 65)" d="M21.754 21.609h11.687v5.94h-11.687v-5.94z"></path>
<path fill="rgb(255, 255, 255)" d="M22.953 22.536h4.074v4.016h-4.074v-4.016z"></path>
<path fill="rgb(255, 255, 255)" d="M28.26 22.536h4.074v4.016h-4.074v-4.016z"></path>
</svg>
<svg id="awsicon-AWSVPCRouteTable" width="52" height="52" viewBox="0 0 52 52" x="780" y="0">
<path fill="rgb(245, 133, 54)" d="M8.597 9.935h34.807v8.318h-34.807v-8.318z"></path>
<path fill="rgb(157, 80, 37)" d="M8.597 18.253h34.807v1.36h-34.807v-1.36z"></path>
<path fill="rgb(245, 133, 54)" d="M8.597 21.406h34.807v8.318h-34.807v-8.318z"></path>
<path fill="rgb(157, 80, 37)" d="M8.597 29.724h34.807v1.36h-34.807v-1.36z"></path>
<path fill="rgb(245, 133, 54)" d="M8.597 32.387h34.807v8.318h-34.807v-8.318z"></path>
<path fill="rgb(157, 80, 37)" d="M8.597 40.705h34.807v1.36h-34.807v-1.36z"></path>
<path fill="rgb(255, 255, 255)" d="M12.888 16.584h-0.799v-3.681h-1.031v-0.531h0.077c0.477 0 1.032-0.113 1.172-0.759v-0.099h0.581v5.070zM17.37 12.26c-0.778 1.037-1.452 2.799-1.565 4.324h-0.842c0.112-1.511 0.842-3.2 1.634-4.239h-2.175v-0.732h2.947v0.646zM20.925 16.584h-2.905c0-2.205 2.084-2.155 2.084-3.73 0-0.417-0.176-0.766-0.618-0.766-0.596 0-0.694 0.544-0.694 1.060h-0.759c0-1.010 0.407-1.634 1.466-1.634 1.018 0 1.403 0.617 1.403 1.354 0 1.683-1.615 1.791-1.993 3.029h2.014v0.688zM22.606 16.584h-0.799v-0.944h0.799v0.944zM25.51 16.584h-0.8v-3.681h-1.031v-0.531h0.077c0.477 0 1.031-0.113 1.172-0.759v-0.099h0.581v5.070zM28.503 16.685c-1.256 0-1.494-0.974-1.494-2.427 0-1.518 0.274-2.743 1.586-2.743 0.872 0 1.34 0.401 1.34 1.232h-0.8c0-0.293-0.133-0.658-0.533-0.658-0.75 0-0.792 1.009-0.792 1.747l0.022 0.014c0.195-0.365 0.531-0.537 0.967-0.537 0.681 0 1.228 0.502 1.228 1.511 0 1.168-0.47 1.863-1.523 1.863zM31.652 16.584h-0.8v-0.944h0.8v0.944zM33.987 16.685c-0.955 0-1.488-0.616-1.488-2.586 0-1.968 0.533-2.585 1.488-2.585 0.954 0 1.487 0.617 1.487 2.585 0.001 1.97-0.533 2.586-1.487 2.586zM37.121 16.584h-0.799v-0.944h0.799v0.944zM39.456 16.685c-0.955 0-1.487-0.616-1.487-2.586 0-1.968 0.532-2.585 1.487-2.585 0.954 0 1.487 0.617 1.487 2.585 0 1.97-0.533 2.586-1.487 2.586z"></path>
<path fill="rgb(255, 255, 255)" d="M39.456 22.994c0.954 0 1.487 0.616 1.487 2.586 0 1.968-0.533 2.585-1.487 2.585-0.955 0-1.487-0.617-1.487-2.585 0-1.971 0.532-2.586 1.487-2.586zM36.321 27.118h0.799v0.945h-0.799v-0.945zM32.724 23.853h0.077c0.477 0 1.031-0.115 1.173-0.759v-0.1h0.581v5.070h-0.8v-3.681h-1.031v-0.53zM30.853 27.118h0.8v0.945h-0.8v-0.945zM28.594 22.994c0.872 0 1.34 0.401 1.34 1.232h-0.8c0-0.293-0.133-0.66-0.533-0.66-0.75 0-0.792 1.010-0.792 1.747l0.022 0.015c0.195-0.366 0.531-0.537 0.967-0.537 0.681 0 1.228 0.501 1.228 1.511 0 1.167-0.47 1.862-1.523 1.862-1.256 0-1.494-0.974-1.494-2.428 0-1.518 0.275-2.742 1.586-2.742zM23.679 23.853h0.077c0.477 0 1.031-0.115 1.172-0.759v-0.1h0.581v5.070h-0.8v-3.681h-1.031v-0.53zM21.807 27.118h0.799v0.945h-0.799v-0.945zM19.486 23.566c-0.596 0-0.694 0.544-0.694 1.061h-0.759c0-1.010 0.407-1.633 1.466-1.633 1.018 0 1.403 0.616 1.403 1.353 0 1.683-1.615 1.79-1.993 3.028h2.014v0.688h-2.905c0-2.206 2.084-2.155 2.084-3.732 0-0.415-0.176-0.766-0.618-0.766zM14.423 23.094h2.947v0.644c-0.778 1.038-1.452 2.801-1.565 4.325h-0.842c0.112-1.511 0.842-3.201 1.634-4.24h-2.175v-0.73zM11.057 23.853h0.077c0.477 0 1.032-0.115 1.172-0.759v-0.1h0.581v5.070h-0.799v-3.681h-1.031v-0.53z"></path>
<path fill="rgb(255, 255, 255)" d="M39.456 33.98c0.954 0 1.487 0.616 1.487 2.585s-0.533 2.586-1.487 2.586c-0.955 0-1.487-0.617-1.487-2.586s0.532-2.585 1.487-2.585zM36.321 38.104h0.799v0.945h-0.799v-0.945zM34.001 34.552c-0.596 0-0.694 0.544-0.694 1.060h-0.758c0-1.010 0.406-1.633 1.465-1.633 1.017 0 1.403 0.616 1.403 1.354 0 1.682-1.614 1.789-1.993 3.028h2.015v0.687h-2.905c0-2.205 2.084-2.156 2.084-3.732 0-0.414-0.175-0.765-0.617-0.765zM30.853 38.104h0.8v0.945h-0.8v-0.945zM28.594 33.98c0.872 0 1.34 0.401 1.34 1.231h-0.8c0-0.294-0.133-0.659-0.533-0.659-0.75 0-0.792 1.009-0.792 1.747l0.022 0.015c0.195-0.366 0.531-0.538 0.967-0.538 0.681 0 1.228 0.502 1.228 1.511 0 1.168-0.47 1.863-1.523 1.863-1.256 0-1.494-0.975-1.494-2.428 0-1.517 0.275-2.741 1.586-2.741zM23.679 34.839h0.077c0.477 0 1.031-0.114 1.172-0.759v-0.1h0.581v5.070h-0.8v-3.681h-1.031v-0.53zM21.807 38.104h0.799v0.945h-0.799v-0.945zM19.486 34.552c-0.596 0-0.694 0.544-0.694 1.060h-0.759c0-1.010 0.407-1.633 1.466-1.633 1.018 0 1.403 0.616 1.403 1.354 0 1.682-1.615 1.789-1.993 3.028h2.014v0.687h-2.905c0-2.205 2.084-2.156 2.084-3.732 0-0.414-0.176-0.765-0.618-0.765zM14.423 34.080h2.947v0.644c-0.778 1.037-1.452 2.8-1.565 4.325h-0.842c0.112-1.511 0.842-3.201 1.634-4.24h-2.175v-0.73zM11.057 34.839h0.077c0.477 0 1.032-0.114 1.172-0.759v-0.1h0.581v5.070h-0.799v-3.681h-1.031v-0.53z"></path>
<path fill="rgb(245, 133, 54)" d="M33.987 12.162c-0.548 0-0.687 0.537-0.687 2.012s0.14 2.012 0.687 2.012 0.686-0.537 0.686-2.012c0.001-1.475-0.139-2.012-0.686-2.012z"></path>
<path fill="rgb(245, 133, 54)" d="M39.456 12.162c-0.548 0-0.688 0.537-0.688 2.012s0.141 2.012 0.688 2.012 0.687-0.537 0.687-2.012c0-1.475-0.14-2.012-0.687-2.012z"></path>
<path fill="rgb(245, 133, 54)" d="M39.456 27.666c0.547 0 0.687-0.537 0.687-2.012 0-1.476-0.141-2.012-0.687-2.012-0.548 0-0.688 0.537-0.688 2.012 0 1.475 0.14 2.012 0.688 2.012z"></path>
<path fill="rgb(245, 133, 54)" d="M28.567 27.666c0.49 0 0.658-0.495 0.658-1.089 0-0.701-0.203-1.095-0.658-1.095-0.583 0-0.688 0.523-0.688 1.133-0.001 0.586 0.218 1.052 0.688 1.052z"></path>
<path fill="rgb(245, 133, 54)" d="M39.456 38.652c0.547 0 0.687-0.537 0.687-2.012s-0.141-2.013-0.687-2.013c-0.548 0-0.688 0.537-0.688 2.013s0.14 2.012 0.688 2.012z"></path>
<path fill="rgb(245, 133, 54)" d="M28.567 38.652c0.49 0 0.658-0.494 0.658-1.089 0-0.701-0.203-1.096-0.658-1.096-0.583 0-0.688 0.524-0.688 1.132-0.001 0.587 0.218 1.053 0.688 1.053z"></path>
<path fill="rgb(245, 133, 54)" d="M28.567 16.186c0.49 0 0.658-0.494 0.658-1.089 0-0.701-0.203-1.095-0.658-1.095-0.583 0-0.688 0.523-0.688 1.132-0.001 0.586 0.218 1.051 0.688 1.051z"></path>
</svg>
<svg id="awsicon-AWSVPCSubnet" width="52" height="52" viewBox="0 0 52 52" x="832" y="0">
<path fill="#444444" d="M33.62 40.82h-3.714v-1.56h3.714c0.747 0 1.47-0.148 2.15-0.44l0.616 1.434c-0.876 0.375-1.806 0.566-2.765 0.566zM28.867 40.82h-6.24v-1.56h6.24v1.56zM21.587 40.82h-3.151c-1.164 0-2.317-0.291-3.335-0.841l0.742-1.372c0.791 0.427 1.687 0.654 2.593 0.654h3.151v1.56zM37.417 39.706l-0.845-1.311c1.571-1.011 2.508-2.729 2.508-4.595v-5.321h1.56v5.321c0 2.398-1.205 4.606-3.223 5.906zM14.123 39.339c-1.72-1.341-2.707-3.36-2.707-5.539v-0.564h1.56v0.564c0 1.695 0.768 3.265 2.106 4.309l-0.959 1.23zM12.976 32.196h-1.56v-6.24h1.56v6.24zM40.64 27.439h-1.56v-6.24h1.56v6.24zM12.976 24.916h-1.56v-6.24h1.56v6.24zM40.64 20.159h-1.56v-1.544c0-1.391-0.523-2.716-1.473-3.73l1.138-1.067c1.222 1.305 1.895 3.009 1.895 4.797v1.544zM13.043 17.761l-1.541-0.242c0.372-2.369 1.907-4.362 4.108-5.331l0.629 1.427c-1.712 0.754-2.906 2.304-3.195 4.145zM36.932 14.275c-0.957-0.732-2.103-1.119-3.312-1.119h-2.17v-1.56h2.17c1.555 0 3.027 0.498 4.259 1.44l-0.947 1.239zM17.097 13.321l-0.381-1.513c0.56-0.141 1.138-0.213 1.721-0.213h4.694v1.56h-4.694c-0.453 0-0.905 0.056-1.34 0.165zM30.41 13.155h-6.24v-1.56h6.24v1.56z"></path>
</svg>
<svg id="awsicon-AWSVPCVPC" width="52" height="52" viewBox="0 0 52 52" x="0" y="52">
<path fill="rgb(245, 133, 54)" d="M30.935 28.608l-16.049 1.293v9.261l16.049-4.356z"></path>
<path fill="rgb(245, 133, 54)" d="M22.648 25.989h-7.821v-13.144l7.821 2.115z"></path>
<path fill="rgb(107, 58, 25)" d="M22.893 17.229l6.12-1.561 10.494 3.148-5.617 0.79z"></path>
<path fill="rgb(245, 133, 54)" d="M30.618 25.989h-4.638v-18.72l4.638 2.319z"></path>
<path fill="rgb(245, 133, 54)" d="M39.507 25.989h1.98v-10.966l-1.98-0.991z"></path>
<path fill="rgb(245, 133, 54)" d="M41.487 19.41l-15.507-4.651v-7.489l15.507 7.754z"></path>
<path fill="rgb(157, 80, 37)" d="M17.725 25.989h8.255v-18.72l-8.255 4.127z"></path>
<path fill="rgb(157, 80, 37)" d="M14.826 12.866l-4.313 2.178v10.966h4.313z"></path>
<path fill="rgb(157, 80, 37)" d="M33.917 25.989h5.59v-7.173l-5.59 0.786z"></path>
<path fill="rgb(245, 133, 54)" d="M41.487 29.259l-15.507 2.312v13.138l15.507-7.754z"></path>
<path fill="rgb(157, 80, 37)" d="M17.725 30.378l8.255 1.236v13.116l-8.255-4.128z"></path>
<path fill="rgb(157, 80, 37)" d="M10.513 29.299l4.373 0.644v9.241l-4.373-2.187z"></path>
<path fill="rgb(251, 191, 147)" d="M41.487 29.259l-7.457-0.461-16.306 1.559 8.182 1.224z"></path>
<path fill="rgb(251, 191, 147)" d="M30.935 28.608l-4.919-0.304-15.503 0.963 4.373 0.655z"></path>
</svg>
</svg>
