<?xml version="1.0" encoding="UTF-8" standalone="no"?>
<!-- Generated by IcoMoon.io -->

<svg
   xmlns:dc="http://purl.org/dc/elements/1.1/"
   xmlns:cc="http://creativecommons.org/ns#"
   xmlns:rdf="http://www.w3.org/1999/02/22-rdf-syntax-ns#"
   xmlns:svg="http://www.w3.org/2000/svg"
   xmlns="http://www.w3.org/2000/svg"
   xmlns:sodipodi="http://sodipodi.sourceforge.net/DTD/sodipodi-0.dtd"
   xmlns:inkscape="http://www.inkscape.org/namespaces/inkscape"
   version="1.1"
   width="1360"
   height="80"
   viewBox="0 0 1360 80"
   id="svg2"
   inkscape:version="0.91 r13725"
   sodipodi:docname="awsicon1.svg">
  <metadata
     id="metadata407">
    <rdf:RDF>
      <cc:Work
         rdf:about="">
        <dc:format>image/svg+xml</dc:format>
        <dc:type
           rdf:resource="http://purl.org/dc/dcmitype/StillImage" />
        <dc:title></dc:title>
      </cc:Work>
    </rdf:RDF>
  </metadata>
  <defs
     id="defs405" />
  <sodipodi:namedview
     pagecolor="#ffffff"
     bordercolor="#666666"
     borderopacity="1"
     objecttolerance="10"
     gridtolerance="10"
     guidetolerance="10"
     inkscape:pageopacity="0"
     inkscape:pageshadow="2"
     inkscape:window-width="1871"
     inkscape:window-height="1056"
     id="namedview403"
     showgrid="false"
     inkscape:zoom="1.0205882"
     inkscape:cx="673.83205"
     inkscape:cy="59.073434"
     inkscape:window-x="49"
     inkscape:window-y="24"
     inkscape:window-maximized="1"
     inkscape:current-layer="svg2" />
  <svg
     id="awsicon-AWSAutoScalingGroup"
     width="80"
     height="80"
     viewBox="0 0 80 80"
     x="0"
     y="0"
     version="1.1">
    <path
       fill="rgb(157, 81, 37)"
       d="M30.276 27.104h3.598v2.036h-3.598v-2.036z"
       id="path5" />
    <path
       fill="rgb(157, 81, 37)"
       d="M45.979 27.104h3.595v2.036h-3.595v-2.036z"
       id="path7" />
    <path
       fill="rgb(157, 81, 37)"
       d="M45.979 33.626v2.036l-4.869 5.021v-2.038z"
       id="path9" />
    <path
       fill="rgb(157, 81, 37)"
       d="M38.952 38.645v2.038l-5.078-5.188v-2.038z"
       id="path11" />
    <path
       fill="rgb(157, 81, 37)"
       d="M55.11 43.362h8.338v2.038h-8.338v-2.038z"
       id="path13" />
    <path
       fill="rgb(157, 81, 37)"
       d="M16.552 43.362h8.338v2.038h-8.338v-2.038z"
       id="path15" />
    <path
       fill="rgb(157, 81, 37)"
       d="M55.11 48.234v2.039l-9.788-9.642v-2.038z"
       id="path17" />
    <path
       fill="rgb(244, 131, 52)"
       d="M24.89 29.066l9.788 9.633-9.788 9.534v-4.872h-8.338v-9.433h8.338z"
       id="path19" />
    <path
       fill="rgb(157, 81, 37)"
       d="M34.678 38.699v2.036l-9.788 9.538v-2.039z"
       id="path21" />
    <path
       fill="rgb(244, 131, 52)"
       d="M55.11 29.066v4.874h8.338v9.422h-8.338v4.872l-9.788-9.641z"
       id="path23" />
    <path
       fill="rgb(157, 81, 37)"
       d="M49.574 50.86v2.038l-9.702 9.716-0.459-2.488z"
       id="path25" />
    <path
       fill="rgb(157, 81, 37)"
       d="M39.873 60.574v2.039l-9.597-9.716v-2.038z"
       id="path27" />
    <path
       fill="rgb(244, 131, 52)"
       d="M39.979 17.386l9.595 9.718h-3.595v6.522l-4.869 5.019 4.869 5.158v7.058h3.595l-9.702 9.714-9.597-9.714h3.598v-6.984l5.078-5.231-5.078-5.188v-6.353h-3.598z"
       id="path29" />
  </svg>
  <svg
     id="awsicon-AWSAutoScalingLaunchConfiguration"
     width="80"
     height="80"
     viewBox="0 0 80 80"
     x="80"
     y="0"
     version="1.1">
    <path
       fill="rgb(245, 133, 54)"
       d="M53.886 17.339c4.013 0 7.25 3.23 7.25 7.21v28.387c0 3.982-3.24 7.21-7.25 7.21h-27.76c-4.011 0-7.264-3.228-7.264-7.21v-28.387c0-3.98 3.253-7.21 7.264-7.21h27.76z"
       id="path32" />
    <path
       fill="rgb(157, 80, 37)"
       d="M61.138 52.936v2.516c0 0.35-0.026 0.695-0.074 1.033v-2.516c0.048-0.338 0.074-0.683 0.074-1.033z"
       id="path34" />
    <path
       fill="rgb(157, 80, 37)"
       d="M61.065 53.969v2.516c-0.059 0.4-0.15 0.789-0.27 1.166v-2.516c0.121-0.377 0.21-0.766 0.27-1.166z"
       id="path36" />
    <path
       fill="rgb(157, 80, 37)"
       d="M60.795 55.134v2.516c-0.144 0.446-0.326 0.867-0.55 1.269v-2.517c0.224-0.401 0.406-0.824 0.55-1.268z"
       id="path38" />
    <path
       fill="rgb(157, 80, 37)"
       d="M60.247 56.402v2.517c-1.231 2.23-3.615 3.742-6.359 3.742v-2.516c2.744 0.001 5.128-1.512 6.359-3.743z"
       id="path40" />
    <path
       fill="rgb(157, 80, 37)"
       d="M61.138 52.936v2.516c0 3.983-3.24 7.211-7.25 7.211v-2.517c4.010-0.001 7.25-3.23 7.25-7.21z"
       id="path42" />
    <path
       fill="rgb(157, 80, 37)"
       d="M25.826 60.146h28.111v2.517h-28.111v-2.517z"
       id="path44" />
    <path
       fill="rgb(157, 80, 37)"
       d="M26.426 60.146v2.517c-4.011 0-7.564-3.228-7.564-7.211v-2.515c0 3.982 3.253 7.21 7.264 7.21z"
       id="path46" />
    <path
       fill="rgb(157, 80, 37)"
       d="M26.126 60.146v2.517c-4.011 0-7.264-3.228-7.264-7.211v-2.515c0 3.981 3.254 7.21 7.264 7.21z"
       id="path48" />
    <path
       fill="rgb(255, 255, 255)"
       d="M24.882 29.4h30v4h-30v-4z"
       id="path50" />
    <path
       fill="rgb(255, 255, 255)"
       d="M24.882 37.6h30v4h-30v-4z"
       id="path52" />
    <path
       fill="rgb(255, 255, 255)"
       d="M25 45.6h30v4h-30v-4z"
       id="path54" />
  </svg>
  <svg
     id="awsicon-AWSEC2AMI"
     width="80"
     height="80"
     viewBox="0 0 80 80"
     x="160"
     y="0"
     version="1.1">
    <path
       fill="rgb(157, 80, 37)"
       d="M61.25 56.542v2.374c0 0.184-0.014 0.366-0.039 0.544v-2.374c0.026-0.177 0.039-0.36 0.039-0.544z"
       id="path57" />
    <path
       fill="rgb(157, 80, 37)"
       d="M61.211 57.085v2.374c-0.031 0.211-0.078 0.416-0.142 0.614v-2.374c0.064-0.198 0.111-0.403 0.142-0.614z"
       id="path59" />
    <path
       fill="rgb(157, 80, 37)"
       d="M61.069 57.699v2.374c-0.075 0.233-0.172 0.456-0.289 0.667v-2.374c0.117-0.211 0.214-0.434 0.289-0.667z"
       id="path61" />
    <path
       fill="rgb(157, 80, 37)"
       d="M60.78 58.366v2.374c-0.647 1.172-1.897 1.967-3.339 1.967v-2.374c1.442 0 2.692-0.795 3.339-1.967z"
       id="path63" />
    <path
       fill="rgb(157, 80, 37)"
       d="M61.25 56.542v2.374c0 2.092-1.702 3.792-3.81 3.792v-2.374c2.109 0 3.81-1.702 3.81-3.792z"
       id="path65" />
    <path
       fill="rgb(157, 80, 37)"
       d="M22.559 60.334v2.374c-2.108 0-3.81-1.7-3.81-3.792v-2.374c0.001 2.090 1.702 3.792 3.81 3.792z"
       id="path67" />
    <path
       fill="rgb(157, 80, 37)"
       d="M58.314 59.729l-0.874 2.978h-34.882l-0.787-2.721z"
       id="path69" />
    <path
       fill="rgb(245, 133, 54)"
       d="M57.441 17.293c2.108 0 3.81 1.7 3.81 3.793v35.455c0 2.090-1.702 3.792-3.81 3.792h-34.882c-2.108 0-3.81-1.702-3.81-3.792v-35.455c0-2.093 1.702-3.793 3.81-3.793h34.882z"
       id="path71" />
    <path
       fill="rgb(255, 255, 255)"
       d="M26.517 24.551h26.934v12.694h-26.934v-12.694z"
       id="path73" />
    <path
       fill="rgb(245, 133, 53)"
       d="M28.574 26.65h6.389v8.502h-6.389v-8.502z"
       id="path75" />
    <path
       fill="rgb(245, 133, 53)"
       d="M36.787 26.65h6.392v8.502h-6.392v-8.502z"
       id="path77" />
    <path
       fill="rgb(245, 133, 53)"
       d="M45.005 26.65h6.392v8.502h-6.392v-8.502z"
       id="path79" />
    <path
       fill="rgb(255, 255, 255)"
       d="M26.517 41.554h26.934v12.695h-26.934v-12.695z"
       id="path81" />
    <path
       fill="rgb(245, 133, 53)"
       d="M28.574 43.65h6.389v8.502h-6.389v-8.502z"
       id="path83" />
    <path
       fill="rgb(245, 133, 53)"
       d="M36.787 43.65h6.392v8.502h-6.392v-8.502z"
       id="path85" />
    <path
       fill="rgb(245, 133, 53)"
       d="M45.005 43.65h6.392v8.502h-6.392v-8.502z"
       id="path87" />
  </svg>
  <svg
     id="awsicon-AWSEC2EBSVolume"
     width="80"
     height="80"
     viewBox="0 0 80 80"
     x="240"
     y="0"
     version="1.1">
    <path
       fill="rgb(157, 80, 37)"
       d="M61.25 56.542v2.374c0 0.183-0.015 0.366-0.039 0.544v-2.374c0.025-0.178 0.039-0.361 0.039-0.545z"
       id="path90" />
    <path
       fill="rgb(157, 80, 37)"
       d="M61.211 57.084v2.374c-0.031 0.211-0.078 0.416-0.142 0.614v-2.374c0.064-0.198 0.111-0.403 0.142-0.615z"
       id="path92" />
    <path
       fill="rgb(157, 80, 37)"
       d="M61.069 57.699v2.374c-0.075 0.233-0.172 0.456-0.289 0.667v-2.374c0.117-0.212 0.214-0.434 0.289-0.667z"
       id="path94" />
    <path
       fill="rgb(157, 80, 37)"
       d="M60.78 58.366v2.374c-0.647 1.173-1.897 1.967-3.339 1.967v-2.374c1.442 0 2.692-0.795 3.339-1.967z"
       id="path96" />
    <path
       fill="rgb(157, 80, 37)"
       d="M61.25 56.542v2.374c0 2.091-1.702 3.791-3.81 3.791v-2.374c2.109 0 3.81-1.702 3.81-3.792z"
       id="path98" />
    <path
       fill="rgb(157, 80, 37)"
       d="M22.559 60.334v2.374c-2.108 0-3.81-1.7-3.81-3.791v-2.374c0.001 2.090 1.702 3.792 3.81 3.792z"
       id="path100" />
    <path
       fill="rgb(157, 80, 37)"
       d="M58.314 59.729l-0.874 2.978h-34.882l-0.787-2.722z"
       id="path102" />
    <path
       fill="rgb(245, 133, 54)"
       d="M57.441 17.293c2.108 0 3.81 1.7 3.81 3.793v35.455c0 2.090-1.702 3.792-3.81 3.792h-34.882c-2.108 0-3.81-1.702-3.81-3.792v-35.455c0-2.093 1.702-3.793 3.81-3.793h34.882z"
       id="path104" />
    <path
       fill="rgb(245, 133, 53)"
       d="M28.574 26.65h6.389v8.502h-6.389v-8.502z"
       id="path106" />
    <path
       fill="rgb(245, 133, 53)"
       d="M36.787 26.65h6.393v8.502h-6.393v-8.502z"
       id="path108" />
    <path
       fill="rgb(245, 133, 53)"
       d="M45.005 26.65h6.392v8.502h-6.392v-8.502z"
       id="path110" />
    <path
       fill="rgb(245, 133, 53)"
       d="M28.574 43.65h6.389v8.502h-6.389v-8.502z"
       id="path112" />
    <path
       fill="rgb(245, 133, 53)"
       d="M36.787 43.65h6.393v8.502h-6.393v-8.502z"
       id="path114" />
    <path
       fill="rgb(245, 133, 53)"
       d="M45.005 43.65h6.392v8.502h-6.392v-8.502z"
       id="path116" />
    <path
       fill="rgb(186, 186, 186)"
       d="M50.83 51.113c0 1.486-1.062 2.691-2.373 2.691h-16.71c-1.31 0-2.373-1.205-2.373-2.691v-20.377c0-1.486 1.062-2.691 2.373-2.691h16.711c1.31 0 2.373 1.205 2.373 2.691v20.377z"
       id="path118" />
    <path
       fill="rgb(255, 255, 255)"
       d="M50.83 48.513c0 1.486-1.062 2.691-2.373 2.691h-16.71c-1.31 0-2.373-1.205-2.373-2.691v-20.377c0-1.486 1.062-2.691 2.373-2.691h16.711c1.31 0 2.373 1.205 2.373 2.691v20.377z"
       id="path120" />
  </svg>
  <svg
     id="awsicon-AWSEC2EIP"
     width="80"
     height="80"
     viewBox="0 0 80 80"
     x="320"
     y="0"
     version="1.1">
    <path
       fill="rgb(157, 80, 37)"
       d="M67.162 37.72v4.536l-4.925 1.846-2.033-5.067z"
       id="path123" />
    <path
       fill="rgb(157, 80, 37)"
       d="M24.485 39.544h24.805v4.534h-24.805v-4.534z"
       id="path125" />
    <path
       fill="rgb(157, 81, 37)"
       d="M24.635 39.544v4.534l-0.003 0.007v-4.535l0.003-0.006z"
       id="path127" />
    <path
       fill="rgb(157, 81, 37)"
       d="M24.67 39.462v4.536c-0.118 0.372-0.311 0.816-0.497 1.151v-4.536c0.186-0.336 0.341-0.692 0.459-1.064z"
       id="path129" />
    <path
       fill="rgb(157, 81, 37)"
       d="M24.173 40.614v4.536c-1.022 1.858-2.992 3.113-5.283 3.113-3.347 0-6.051-2.689-6.051-6.006v-4.536c0 3.318 2.705 6.008 6.051 6.008 2.291-0.001 4.261-1.257 5.283-3.114z"
       id="path131" />
    <path
       fill="rgb(157, 80, 37)"
       d="M24.635 39.544v4.534c-0.777 2.431-3.038 4.184-5.746 4.184-3.347 0-6.051-2.689-6.051-6.006v-4.536c0 3.318 2.705 6.008 6.051 6.008 2.708 0 4.969-1.753 5.746-4.184z"
       id="path133" />
    <path
       fill="rgb(245, 133, 54)"
       d="M49.29 31.083l17.872 6.637-4.475 1.658-0.213 0.098-0.186 0.068-12.998 4.839v-4.839h-24.654c-0.777 2.431-3.038 4.184-5.746 4.184-3.347 0-6.051-2.689-6.051-6.008s2.705-5.984 6.051-5.984c2.708 0 4.969 1.754 5.746 4.184h24.654v-4.837z"
       id="path135" />
    <path
       fill="rgb(157, 80, 37)"
       d="M62.288 39.544v4.534l-12.998 4.838v-4.534z"
       id="path137" />
  </svg>
  <svg
     id="awsicon-AWSEC2Instance"
     width="80"
     height="80"
     viewBox="0 0 80 80"
     x="400"
     y="0"
     version="1.1">
    <path
       fill="rgb(245, 133, 54)"
       d="M53.886 17.339c4.012 0 7.251 3.23 7.251 7.21v28.387c0 3.982-3.24 7.21-7.251 7.21h-27.761c-4.011 0-7.264-3.228-7.264-7.21v-28.387c0-3.98 3.253-7.21 7.264-7.21h27.761z"
       id="path140" />
    <path
       fill="rgb(157, 80, 37)"
       d="M61.138 52.936v2.516c0 0.35-0.026 0.695-0.074 1.033v-2.516c0.047-0.338 0.074-0.683 0.074-1.033z"
       id="path142" />
    <path
       fill="rgb(157, 80, 37)"
       d="M61.065 53.969v2.516c-0.059 0.4-0.15 0.789-0.27 1.166v-2.516c0.12-0.377 0.21-0.766 0.27-1.166z"
       id="path144" />
    <path
       fill="rgb(157, 80, 37)"
       d="M60.795 55.134v2.516c-0.143 0.444-0.326 0.867-0.55 1.269v-2.517c0.223-0.401 0.406-0.824 0.55-1.268z"
       id="path146" />
    <path
       fill="rgb(157, 80, 37)"
       d="M60.246 56.402v2.517c-1.23 2.23-3.614 3.742-6.359 3.742v-2.516c2.745 0.001 5.129-1.512 6.359-3.743z"
       id="path148" />
    <path
       fill="rgb(157, 80, 37)"
       d="M61.138 52.936v2.516c0 3.982-3.24 7.21-7.251 7.21v-2.516c4.011 0 7.251-3.229 7.251-7.21z"
       id="path150" />
    <path
       fill="rgb(157, 80, 37)"
       d="M25.826 60.146h28.111v2.516h-28.111v-2.516z"
       id="path152" />
    <path
       fill="rgb(157, 80, 37)"
       d="M26.426 60.146v2.516c-4.011 0-7.564-3.228-7.564-7.21v-2.516c0 3.982 3.253 7.21 7.264 7.21z"
       id="path154" />
    <path
       fill="rgb(157, 80, 37)"
       d="M26.126 60.146v2.516c-4.011 0-7.264-3.228-7.264-7.21v-2.516c0 3.981 3.254 7.21 7.264 7.21z"
       id="path156" />
  </svg>
  <svg
     id="awsicon-AWSEC2Region"
     width="80"
     height="80"
     viewBox="0 0 80 80"
     x="480"
     y="0"
     version="1.1">
    <path
       fill="rgb(245, 133, 54)"
       d="M39.623 63.76c-3.483-0.014-6.931-0.227-9.97-0.617l0.306-2.382c2.942 0.378 6.287 0.584 9.674 0.598l-0.010 2.401zM41.284 63.751l-0.033-2.4c3.418-0.048 6.758-0.294 9.658-0.711l0.342 2.375c-3.002 0.433-6.447 0.687-9.968 0.736zM27.995 62.908c-3.678-0.577-8.379-1.697-9.891-3.756l1.935-1.42c0.574 0.782 3.099 1.985 8.328 2.806l-0.372 2.37zM52.91 62.752l-0.416-2.364c6.046-1.061 7.479-2.497 7.51-2.795l2.4-0.044v0.045c0 2.318-3.194 4.053-9.494 5.158zM19.964 56.878h-2.4v-9.843h2.4v9.843zM62.404 55.91h-2.4v-9.843h2.4v9.843zM19.964 45.395h-2.4v-9.842h2.4v9.842zM62.404 44.426h-2.4v-9.842h2.4v9.842zM19.964 33.912h-2.4v-9.842h2.4v9.842zM62.404 32.943h-2.4v-9.842h2.4v9.842zM17.564 22.43v-0.022c0-2.314 3.186-4.049 9.472-5.154l0.416 2.364c-6.028 1.061-7.457 2.494-7.488 2.791l-2.4 0.022zM59.924 22.262c-0.586-0.782-3.124-1.984-8.346-2.802l0.372-2.371c3.666 0.574 8.358 1.687 9.892 3.732l-1.918 1.441zM29.036 19.363l-0.343-2.375c3.004-0.434 6.45-0.689 9.967-0.739l0.034 2.4c-3.415 0.049-6.755 0.296-9.658 0.714zM49.987 19.235c-2.948-0.377-6.293-0.582-9.674-0.594l0.009-2.4c3.478 0.013 6.925 0.225 9.97 0.614l-0.305 2.38z"
       id="path161" />
  </svg>
  <svg
     id="awsicon-AWSEC2SecurityGroup"
     width="80"
     height="80"
     viewBox="0 0 80 80"
     x="560"
     y="0"
     version="1.1">
    <path
       fill="rgb(245, 133, 54)"
       d="M53.886 17.339c4.013 0 7.25 3.23 7.25 7.21v28.387c0 3.982-3.24 7.21-7.25 7.21h-27.76c-4.011 0-7.264-3.228-7.264-7.21v-28.387c0-3.98 3.253-7.21 7.264-7.21h27.76z"
       id="path164" />
    <path
       fill="rgb(157, 80, 37)"
       d="M61.138 52.936v2.516c0 0.35-0.026 0.695-0.074 1.033v-2.516c0.048-0.338 0.074-0.683 0.074-1.033z"
       id="path166" />
    <path
       fill="rgb(157, 80, 37)"
       d="M61.065 53.969v2.516c-0.059 0.4-0.15 0.789-0.27 1.166v-2.516c0.121-0.377 0.21-0.766 0.27-1.166z"
       id="path168" />
    <path
       fill="rgb(157, 80, 37)"
       d="M60.795 55.134v2.516c-0.144 0.446-0.326 0.867-0.55 1.269v-2.517c0.224-0.401 0.406-0.824 0.55-1.268z"
       id="path170" />
    <path
       fill="rgb(157, 80, 37)"
       d="M60.247 56.402v2.517c-1.231 2.23-3.615 3.742-6.359 3.742v-2.516c2.744 0.001 5.128-1.512 6.359-3.743z"
       id="path172" />
    <path
       fill="rgb(157, 80, 37)"
       d="M61.138 52.936v2.516c0 3.983-3.24 7.212-7.25 7.212v-2.517c4.010-0.002 7.25-3.23 7.25-7.211z"
       id="path174" />
    <path
       fill="rgb(157, 80, 37)"
       d="M25.826 60.146h28.111v2.517h-28.111v-2.517z"
       id="path176" />
    <path
       fill="rgb(157, 80, 37)"
       d="M26.426 60.146v2.517c-4.011 0-7.564-3.228-7.564-7.211v-2.515c0 3.982 3.253 7.21 7.264 7.21z"
       id="path178" />
    <path
       fill="rgb(157, 80, 37)"
       d="M26.126 60.146v2.517c-4.011 0-7.264-3.228-7.264-7.211v-2.515c0 3.981 3.254 7.21 7.264 7.21z"
       id="path180" />
    <path
       fill="rgb(255, 255, 255)"
       d="M53.090 49.141v-2.737c-0.192-1.803-1.745-3.204-3.61-3.204-1.87 0-3.426 1.394-3.611 3.204v2.737h-1.869v6.067h10.906v-6.067h-1.815zM51.325 49.141h-3.716l0.013-2.737c0 0-0.002-1.678 1.858-1.671 1.778 0.005 1.857 1.671 1.857 1.671l-0.011 2.737z"
       id="path182" />
    <path
       fill="rgb(255, 255, 255)"
       d="M27.6 28.4h25.906v3.2h-25.906v-3.2z"
       id="path184" />
    <path
       fill="rgb(255, 255, 255)"
       d="M27.6 37.2h25.906v3.2h-25.906v-3.2z"
       id="path186" />
    <path
       fill="rgb(255, 255, 255)"
       d="M27.6 46.004h12.953v3.2h-12.953v-3.2z"
       id="path188" />
  </svg>
  <svg
     id="awsicon-AWSELB"
     width="80"
     height="80"
     viewBox="0 0 80 80"
     x="640"
     y="0"
     version="1.1">
    <path
       fill="rgb(245, 133, 54)"
       d="M40.682 17.103c12.218 0.366 21.825 10.482 21.461 22.61-0.364 12.115-10.56 21.643-22.778 21.277-12.207-0.366-21.814-10.489-21.45-22.604 0.364-12.13 10.561-21.65 22.768-21.283z"
       id="path191" />
    <path
       fill="rgb(157, 80, 37)"
       d="M60.899 46.35l-0.057 1.907c-0.47 1.335-1.070 2.607-1.781 3.806l0.057-1.907c0.711-1.2 1.311-2.472 1.781-3.806z"
       id="path193" />
    <path
       fill="rgb(157, 80, 37)"
       d="M59.118 50.155l-0.057 1.907c-3.96 6.69-11.383 11.085-19.754 10.834-12.207-0.366-21.814-10.489-21.45-22.606l0.057-1.906c-0.363 12.115 9.244 22.238 21.45 22.604 8.372 0.251 15.794-4.142 19.754-10.834z"
       id="path195" />
    <path
       fill="rgb(157, 80, 37)"
       d="M62.143 39.714l-0.057 1.906c-0.032 1.066-0.14 2.108-0.319 3.128l0.058-1.907c0.178-1.021 0.286-2.062 0.318-3.126z"
       id="path197" />
    <path
       fill="rgb(157, 80, 37)"
       d="M61.824 42.84l-0.058 1.907c-0.214 1.206-0.522 2.382-0.924 3.51l0.057-1.907c0.402-1.128 0.71-2.302 0.925-3.51z"
       id="path199" />
    <path
       fill="rgb(157, 80, 37)"
       d="M62.143 39.714l-0.057 1.906c-0.364 12.117-10.561 21.645-22.779 21.278-12.207-0.367-21.814-10.49-21.45-22.606l0.057-1.906c-0.363 12.115 9.244 22.238 21.45 22.604 12.219 0.366 22.415-9.162 22.779-21.276z"
       id="path201" />
    <path
       fill="rgb(255, 255, 255)"
       d="M54.394 31.6h-7.2v-1.433l-2.236 2.82-1.028-1.453-10.147 6.466h8.611v-1.538l4.8 1.795v-2.658h7.2v7.2h-7.2v-2.658l-4.8 1.795v-1.538h-8.61l10.239 6.465 0.934-1.502 2.236 2.87v-1.433h7.2v7.2h-7.2v-2.878l-4.974-1.197 0.68-1.444-12.506-8.090v4.81h-8v-12h8v4.808l12.598-8.090-0.772-1.443 4.974-1.197v-2.878h7.2v7.2z"
       id="path203" />
  </svg>
  <svg
     id="awsicon-AWSRDSDBInstance"
     width="80"
     height="80"
     viewBox="0 0 80 80"
     x="720"
     y="0"
     version="1.1">
    <path
       fill="rgb(157, 80, 37)"
       d="M41.802 37.197v2.084c-0.041 0.072-0.075 0.149-0.1 0.223v-2.084c0.025-0.074 0.059-0.15 0.1-0.223z"
       id="path206" />
    <path
       fill="rgb(157, 80, 37)"
       d="M41.702 37.42v2.084c-0.011 0.038-0.022 0.075-0.032 0.113v-2.084c0.010-0.039 0.021-0.075 0.032-0.113z"
       id="path208" />
    <path
       fill="rgb(157, 80, 37)"
       d="M60.88 38.238c-2.989-0.989-6.262-1.118-9.046-1.118-4.062 0-9.197 0.931-10.194 2.313l-0.039-1.903c0.369-1.675 5.161-3.098 9.387-3.098 1.428 0 7.854 0.653 9.911 1.717z"
       id="path210" />
    <path
       fill="rgb(245, 133, 54)"
       d="M52.472 39.016c1.756 0 3.247 0.138 4.48 0.334 2.641 0.439 4.038 1.189 4.038 1.651s-1.397 1.214-4.038 1.641c-1.233 0.208-2.723 0.336-4.48 0.336-5.517 0-8.52-1.306-8.52-1.977s3.002-1.986 8.52-1.986z"
       id="path212" />
    <path
       fill="rgb(157, 80, 37)"
       d="M60.989 41.002v2.241c0 0.013-0.002 0.025-0.002 0.038v-2.242c0-0.013 0.002-0.023 0.002-0.036z"
       id="path214" />
    <path
       fill="rgb(157, 80, 37)"
       d="M60.987 41.038v2.242c-0.002 0.016-0.006 0.031-0.013 0.047v-2.242c0.007-0.016 0.011-0.032 0.013-0.047z"
       id="path216" />
    <path
       fill="rgb(157, 80, 37)"
       d="M60.975 41.084v2.242c-0.008 0.022-0.017 0.046-0.030 0.067v-2.242c0.012-0.022 0.022-0.045 0.030-0.067z"
       id="path218" />
    <path
       fill="rgb(157, 80, 37)"
       d="M60.946 41.151v2.242c-0.254 0.462-1.623 1.106-3.994 1.489-1.233 0.21-2.723 0.334-4.48 0.334-5.517 0-8.52-1.303-8.52-1.975v-2.241c0 0.67 3.003 1.977 8.52 1.977 1.756 0 3.247-0.128 4.48-0.336 2.37-0.384 3.738-1.026 3.994-1.49z"
       id="path220" />
    <path
       fill="rgb(157, 80, 37)"
       d="M60.989 41.002v2.241c0 0.464-1.397 1.214-4.038 1.641-1.233 0.21-2.723 0.334-4.48 0.334-5.517 0-8.52-1.303-8.52-1.975v-2.241c0 0.67 3.003 1.977 8.52 1.977 1.756 0 3.247-0.128 4.48-0.336 2.641-0.426 4.038-1.178 4.038-1.641z"
       id="path222" />
    <path
       fill="rgb(157, 80, 37)"
       d="M43.969 57.294c0.086 0.436 2.254 0.787 3.317 1.305l-1.438 3.292c-1.334-0.449-1.723-0.734-1.892-0.997z"
       id="path224" />
    <path
       fill="rgb(157, 80, 37)"
       d="M61.128 58.561v2.239c0 0.016 0 0.033-0.003 0.050v-2.241c0.003-0.017 0.003-0.034 0.003-0.048z"
       id="path226" />
    <path
       fill="rgb(157, 80, 37)"
       d="M61.125 58.61v2.241c-0.002 0.018-0.008 0.039-0.014 0.059v-2.242c0.006-0.020 0.013-0.039 0.014-0.058z"
       id="path228" />
    <path
       fill="rgb(157, 80, 37)"
       d="M61.111 58.667v2.242c-0.011 0.031-0.023 0.062-0.044 0.095v-2.241c0.020-0.033 0.033-0.066 0.044-0.097z"
       id="path230" />
    <path
       fill="rgb(157, 80, 37)"
       d="M61.067 58.746v2.241c-0.402 0.713-2.838 1.77-8.038 1.77-3.13 0-5.662-0.406-7.2-0.856l-0.553-2.987c1.538 0.451 4.623 1.605 7.753 1.605 5.2-0.002 7.636-1.059 8.038-1.773z"
       id="path232" />
    <path
       fill="rgb(157, 80, 37)"
       d="M61.128 58.561v2.239c0 0.694-2.374 1.975-8.098 1.975-3.13 0-5.494-0.369-7.2-0.894v-2.241c1.706 0.525 4.070 0.894 7.2 0.894 5.725 0 8.098-1.282 8.098-1.974z"
       id="path234" />
    <path
       fill="rgb(157, 80, 37)"
       d="M22.198 59.587v2.084c-1.775 0-3.216-1.428-3.316-3.202v-2.084c0.101 1.772 1.541 3.202 3.316 3.202z"
       id="path236" />
    <path
       fill="rgb(157, 80, 37)"
       d="M42.882 59.567v2.082l-20.833 0.022v-2.085z"
       id="path238" />
    <path
       fill="rgb(245, 133, 54)"
       d="M60.911 36.411c-3.046-1.062-8.047-1.102-9.475-1.083-4.175 0.056-8.931 1.046-9.728 2.283l-0.033 0.246 0.013 0.761-0.013 19.864c0 0.366 0.77 0.762 1.094 1.086l-20.694 0.020c-1.776 0-3.216-1.43-3.216-3.202v-35.967c0-1.762 1.44-3.19 3.216-3.19l35.746-0.003c1.777 0 3.217 1.43 3.217 3.202z"
       id="path240" />
    <path
       fill="rgb(245, 133, 54)"
       d="M61.141 44.883l-0.013 13.678c0 0.692-2.374 1.974-8.098 1.974-3.13 0-5.494-0.369-7.030-0.82-1.139-0.369-1.944-0.784-2.034-1.095v-13.608c1.664 1.028 5.095 1.57 8.506 1.57h0.22c0.359-0.011 0.698-0.011 1.047-0.023l0.141-0.011c0.302-0.013 0.582-0.023 0.872-0.047 0.151-0.011 0.29-0.022 0.431-0.034 0.231-0.023 0.451-0.034 0.674-0.058 0.13-0.023 0.246-0.034 0.362-0.058 0.244-0.023 0.477-0.056 0.72-0.092 1.862-0.301 3.306-0.798 4.202-1.375z"
       id="path242" />
  </svg>
  <svg
     id="awsicon-AWSRDSDBSubnetGroup"
     width="80"
     height="80"
     viewBox="0 0 80 80"
     x="800"
     y="0"
     version="1.1">
    <path
       fill="rgb(245, 133, 54)"
       d="M51.723 62.8h-5.714v-2.4h5.714c1.149 0 2.261-0.227 3.307-0.677l0.947 2.206c-1.347 0.578-2.778 0.87-4.254 0.87zM44.41 62.8h-9.6v-2.4h9.6v2.4zM33.21 62.8h-4.847c-1.79 0-3.565-0.448-5.131-1.294l1.142-2.111c1.217 0.658 2.596 1.006 3.99 1.006h4.847v2.4zM57.564 61.086l-1.3-2.017c2.417-1.556 3.859-4.199 3.859-7.069v-8.186h2.4v8.186c0 3.69-1.854 7.086-4.959 9.086zM21.728 60.521c-2.646-2.063-4.165-5.17-4.165-8.521v-0.868h2.4v0.868c0 2.607 1.181 5.022 3.24 6.629l-1.475 1.892zM19.963 49.532h-2.4v-9.6h2.4v9.6zM62.523 42.214h-2.4v-9.6h2.4v9.6zM19.963 38.332h-2.4v-9.6h2.4v9.6zM62.523 31.014h-2.4v-2.375c0-2.14-0.805-4.178-2.266-5.739l1.751-1.641c1.88 2.007 2.915 4.629 2.915 7.38v2.375zM20.066 27.325l-2.371-0.372c0.572-3.645 2.934-6.711 6.32-8.202l0.967 2.196c-2.634 1.16-4.471 3.544-4.916 6.378zM56.818 21.961c-1.473-1.126-3.235-1.722-5.095-1.722h-3.339v-2.4h3.339c2.392 0 4.658 0.766 6.553 2.215l-1.458 1.906zM26.302 20.494l-0.586-2.327c0.861-0.217 1.751-0.327 2.647-0.327h7.221v2.4h-7.221c-0.698 0-1.392 0.086-2.061 0.254zM46.784 20.239h-9.6v-2.4h9.6v2.4z"
       id="path247" />
    <path
       fill="rgb(255, 255, 255)"
       d="M40.201 28.989c6.351 0 11.501 1.254 11.501 2.802s-5.15 2.802-11.501 2.802-11.501-1.254-11.501-2.802c0-1.548 5.15-2.802 11.501-2.802z"
       id="path249" />
    <path
       fill="rgb(245, 133, 54)"
       d="M40.201 35.794c-1.3 0-12.701-0.113-12.701-4.002s11.401-4.002 12.701-4.002 12.701 0.113 12.701 4.002c0 3.89-11.401 4.002-12.701 4.002zM30.093 31.791c0.985 0.642 4.454 1.602 10.108 1.602s9.123-0.961 10.108-1.602c-0.983-0.642-4.452-1.602-10.108-1.602s-9.124 0.961-10.108 1.602z"
       id="path251" />
    <path
       fill="rgb(245, 133, 54)"
       d="M27.5 31.791h2.4v18.693h-2.4v-18.693z"
       id="path253" />
    <path
       fill="rgb(245, 133, 54)"
       d="M50.502 31.791h2.4v18.693h-2.4v-18.693z"
       id="path255" />
    <path
       fill="rgb(245, 133, 54)"
       d="M40.198 54.489c-1.3 0-12.702-0.113-12.702-4.005 0-3.89 11.402-4.003 12.702-4.003s12.703 0.113 12.703 4.003c0 3.893-11.403 4.005-12.703 4.005zM30.090 50.484c0.987 0.644 4.457 1.605 10.109 1.605s9.121-0.961 10.109-1.604c-0.987-0.643-4.458-1.604-10.109-1.604s-9.121 0.962-10.109 1.603z"
       id="path257" />
    <path
       fill="rgb(245, 133, 54)"
       d="M29.017 33.59c0 0 9.627 3.514 22.842 0l-0.862 15.831c0 0-6.17 4.244-22.142 1.066l0.162-16.897z"
       id="path259" />
    <path
       fill="rgb(245, 133, 54)"
       d="M39.8 52.866c-3.403 0-7.165-0.405-11.18-1.204l-0.975-0.194 0.188-19.589 1.595 0.582c0.039 0.014 4.192 1.489 10.635 1.489 3.826 0 7.69-0.512 11.487-1.522l1.597-0.424-0.984 18.070-0.486 0.334c-0.146 0.1-3.668 2.457-11.877 2.457zM30.064 49.496c3.493 0.645 6.764 0.97 9.735 0.97 5.732 0 8.898-1.223 10.035-1.776l0.738-13.546c-3.483 0.801-7.010 1.206-10.509 1.206-4.537 0-7.982-0.678-9.862-1.161l-0.137 14.306z"
       id="path261" />
  </svg>
  <svg
     id="awsicon-AWSVPCCustomerGateway"
     width="80"
     height="80"
     viewBox="0 0 80 80"
     x="880"
     y="0"
     version="1.1">
    <path
       fill="rgb(157, 80, 37)"
       d="M42.158 22.797v1.895l-2.994-7.456v-1.897z"
       id="path264" />
    <path
       fill="rgb(157, 80, 37)"
       d="M39.934 35.159h12.949v1.895h-12.949v-1.895z"
       id="path266" />
    <path
       fill="rgb(245, 133, 54)"
       d="M39.165 15.339c11.364 0.392 20.511 9.314 21.159 20.525l-7.442-2.941v2.236h-12.948v-12.362h2.225l-2.994-7.458z"
       id="path268" />
    <path
       fill="rgb(157, 80, 37)"
       d="M60.324 35.864v1.898l-7.442-2.946v-1.894z"
       id="path270" />
    <path
       fill="rgb(157, 80, 37)"
       d="M39.934 51.744h2.225v1.897h-2.225v-1.897z"
       id="path272" />
    <path
       fill="rgb(245, 133, 54)"
       d="M60.354 37.75c-0.323 11.462-9.549 20.7-21.069 21.15l2.874-7.156h-2.225v-12.725h12.949v1.682l7.471-2.951z"
       id="path274" />
    <path
       fill="rgb(157, 80, 37)"
       d="M60.354 37.75v1.895c-0.022 0.844-0.095 1.678-0.214 2.498v-1.897c0.119-0.819 0.193-1.654 0.214-2.497z"
       id="path276" />
    <path
       fill="rgb(157, 80, 37)"
       d="M60.14 40.247v1.897c-0.174 1.208-0.447 2.382-0.813 3.517v-1.895c0.366-1.136 0.639-2.313 0.813-3.518z"
       id="path278" />
    <path
       fill="rgb(157, 80, 37)"
       d="M59.327 43.766v1.895c-0.428 1.333-0.983 2.61-1.649 3.817v-1.897c0.666-1.206 1.221-2.484 1.649-3.815z"
       id="path280" />
    <path
       fill="rgb(157, 80, 37)"
       d="M57.679 47.582v1.897c-3.595 6.517-10.45 11.006-18.394 11.317v-1.895c7.943-0.311 14.798-4.802 18.394-11.318z"
       id="path282" />
    <path
       fill="rgb(157, 80, 37)"
       d="M60.354 37.75v1.895c-0.323 11.464-9.549 20.698-21.069 21.15v-1.895c11.521-0.451 20.746-9.688 21.069-21.15z"
       id="path284" />
    <path
       fill="rgb(157, 80, 37)"
       d="M34.645 51.744h2.216v1.897h-2.216v-1.897z"
       id="path286" />
    <path
       fill="rgb(245, 133, 54)"
       d="M16.471 38.249l6.792 2.686v-1.914h13.597v12.724h-2.216l2.877 7.156c-11.353-0.439-20.47-9.414-21.050-20.651z"
       id="path288" />
    <path
       fill="rgb(157, 80, 37)"
       d="M37.521 58.9v1.895c-11.353-0.441-20.47-9.412-21.050-20.651v-1.895c0.579 11.237 9.697 20.212 21.050 20.651z"
       id="path290" />
    <path
       fill="rgb(157, 80, 37)"
       d="M37.64 15.339v1.897l-2.995 7.456v-1.895z"
       id="path292" />
    <path
       fill="rgb(157, 80, 37)"
       d="M23.263 35.159h13.597v1.895h-13.597v-1.895z"
       id="path294" />
    <path
       fill="rgb(245, 133, 54)"
       d="M37.64 15.339l-2.995 7.458h2.216v12.362h-13.598v-1.846l-6.792 2.686c0.579-11.278 9.767-20.269 21.169-20.661z"
       id="path296" />
    <path
       fill="rgb(157, 80, 37)"
       d="M23.263 33.314v1.894l-6.792 2.689v-1.897z"
       id="path298" />
  </svg>
  <svg
     id="awsicon-AWSVPCNetworkAcl"
     width="80"
     height="80"
     viewBox="0 0 80 80"
     x="960"
     y="0"
     version="1.1">
    <path
       fill="rgb(245, 133, 54)"
       d="M51.723 62.8h-5.714v-2.4h5.714c1.149 0 2.261-0.227 3.307-0.677l0.947 2.206c-1.347 0.578-2.778 0.87-4.254 0.87zM44.41 62.8h-9.6v-2.4h9.6v2.4zM33.21 62.8h-4.847c-1.79 0-3.565-0.448-5.131-1.294l1.142-2.111c1.217 0.658 2.596 1.006 3.99 1.006h4.847v2.4zM57.564 61.086l-1.3-2.017c2.417-1.556 3.859-4.199 3.859-7.069v-8.186h2.4v8.186c0 3.69-1.854 7.086-4.959 9.086zM21.728 60.521c-2.646-2.063-4.165-5.17-4.165-8.521v-0.868h2.4v0.868c0 2.607 1.181 5.022 3.24 6.629l-1.475 1.892zM19.963 49.532h-2.4v-9.6h2.4v9.6zM62.523 42.214h-2.4v-9.6h2.4v9.6zM19.963 38.332h-2.4v-9.6h2.4v9.6zM62.523 31.014h-2.4v-2.375c0-2.14-0.805-4.178-2.266-5.739l1.751-1.641c1.88 2.007 2.915 4.629 2.915 7.38v2.375zM20.066 27.325l-2.371-0.372c0.572-3.645 2.934-6.711 6.32-8.202l0.967 2.196c-2.634 1.16-4.471 3.544-4.916 6.378zM56.818 21.961c-1.473-1.126-3.235-1.722-5.095-1.722h-3.339v-2.4h3.339c2.392 0 4.658 0.766 6.553 2.215l-1.458 1.906zM26.302 20.494l-0.586-2.327c0.861-0.217 1.751-0.327 2.647-0.327h7.221v2.4h-7.221c-0.698 0-1.392 0.086-2.061 0.254zM46.784 20.239h-9.6v-2.4h9.6v2.4z"
       id="path303" />
    <path
       fill="rgb(245, 133, 54)"
       d="M51.89 49.341v-2.737c-0.192-1.803-1.747-3.204-3.611-3.204-1.87 0-3.426 1.394-3.612 3.204v2.737h-1.867v6.067h10.906v-6.067h-1.815zM50.125 49.341h-3.716l0.013-2.737c0 0-0.002-1.678 1.858-1.671 1.778 0.005 1.857 1.671 1.857 1.671l-0.011 2.737z"
       id="path305" />
    <path
       fill="rgb(245, 133, 54)"
       d="M26.4 28.6h25.906v3.2h-25.906v-3.2z"
       id="path307" />
    <path
       fill="rgb(245, 133, 54)"
       d="M26.4 37.4h25.906v3.2h-25.906v-3.2z"
       id="path309" />
    <path
       fill="rgb(245, 133, 54)"
       d="M26.4 46.204h12.953v3.2h-12.953v-3.2z"
       id="path311" />
  </svg>
  <svg
     id="awsicon-AWSVPCNetworkInterface"
     width="80"
     height="80"
     viewBox="0 0 80 80"
     x="1040"
     y="0"
     version="1.1">
    <path
       fill="rgb(245, 133, 54)"
       d="M40 18.133c11.661 0 21.114 9.374 21.114 20.958 0 11.572-9.453 20.958-21.114 20.958-11.659 0-21.114-9.386-21.114-20.958 0-11.584 9.455-20.958 21.114-20.958z"
       id="path314" />
    <path
       fill="rgb(157, 80, 37)"
       d="M58.53 49.146v1.818c-3.586 6.497-10.541 10.903-18.53 10.903-11.659 0-21.114-9.384-21.114-20.958v-1.819c0 11.572 9.454 20.958 21.114 20.958 7.989 0 14.944-4.411 18.53-10.903z"
       id="path316" />
    <path
       fill="rgb(157, 80, 37)"
       d="M61.114 39.090v1.819c0 1.018-0.072 2.017-0.214 2.995v-1.818c0.142-0.98 0.214-1.979 0.214-2.996z"
       id="path318" />
    <path
       fill="rgb(157, 80, 37)"
       d="M60.9 42.086v1.818c-0.169 1.158-0.428 2.286-0.778 3.378v-1.822c0.35-1.089 0.61-2.218 0.778-3.375z"
       id="path320" />
    <path
       fill="rgb(157, 80, 37)"
       d="M60.122 45.461v1.822c-0.417 1.284-0.949 2.517-1.592 3.682v-1.818c0.644-1.167 1.175-2.4 1.592-3.685z"
       id="path322" />
    <path
       fill="rgb(157, 80, 37)"
       d="M61.114 39.090v1.819c0 11.574-9.453 20.958-21.114 20.958-11.659 0-21.114-9.384-21.114-20.958v-1.819c0 11.572 9.454 20.958 21.114 20.958s21.114-9.386 21.114-20.958z"
       id="path324" />
    <path
       fill="rgb(255, 255, 255)"
       d="M25.506 29.182v1.53h1.9v16.758h-1.9v1.531h3.672v-19.818z"
       id="path326" />
    <path
       fill="rgb(255, 255, 255)"
       d="M54.33 31.385h-23.382v13.065h2.178v2.638h9.958v-2.638h3.634v2.638h4.388v-2.638h3.225z"
       id="path328" />
    <path
       fill="rgb(217, 167, 65)"
       d="M33.467 33.244h17.98v9.138h-17.98v-9.138z"
       id="path330" />
    <path
       fill="rgb(255, 255, 255)"
       d="M35.313 34.67h6.267v6.179h-6.267v-6.179z"
       id="path332" />
    <path
       fill="rgb(255, 255, 255)"
       d="M43.477 34.67h6.267v6.179h-6.267v-6.179z"
       id="path334" />
  </svg>
  <svg
     id="awsicon-AWSVPCRouteTable"
     width="80"
     height="80"
     viewBox="0 0 80 80"
     x="1120"
     y="0"
     version="1.1">
    <path
       fill="rgb(245, 133, 54)"
       d="M13.226 15.284h53.549v12.797h-53.549v-12.797z"
       id="path337" />
    <path
       fill="rgb(157, 80, 37)"
       d="M13.226 28.082h53.549v2.092h-53.549v-2.092z"
       id="path339" />
    <path
       fill="rgb(245, 133, 54)"
       d="M13.226 32.933h53.549v12.797h-53.549v-12.797z"
       id="path341" />
    <path
       fill="rgb(157, 80, 37)"
       d="M13.226 45.73h53.549v2.092h-53.549v-2.092z"
       id="path343" />
    <path
       fill="rgb(245, 133, 54)"
       d="M13.226 49.826h53.549v12.797h-53.549v-12.797z"
       id="path345" />
    <path
       fill="rgb(157, 80, 37)"
       d="M13.226 62.623h53.549v2.092h-53.549v-2.092z"
       id="path347" />
    <path
       fill="rgb(255, 255, 255)"
       d="M19.827 25.514h-1.23v-5.662h-1.586v-0.817h0.119c0.734 0 1.587-0.174 1.802-1.168v-0.153h0.894v7.8zM26.723 18.862c-1.198 1.595-2.234 4.306-2.407 6.652h-1.295c0.173-2.325 1.295-4.923 2.514-6.521h-3.346v-1.126h4.534v0.994zM32.193 25.514h-4.469c0-3.393 3.206-3.316 3.206-5.739 0-0.641-0.27-1.178-0.95-1.178-0.918 0-1.067 0.837-1.067 1.63h-1.167c0-1.554 0.626-2.514 2.256-2.514 1.566 0 2.159 0.949 2.159 2.082 0 2.59-2.484 2.755-3.066 4.66h3.098v1.058zM34.779 25.514h-1.23v-1.453h1.23v1.453zM39.246 25.514h-1.23v-5.662h-1.586v-0.817h0.118c0.734 0 1.586-0.174 1.803-1.168v-0.153h0.894v7.8zM43.85 25.669c-1.932 0-2.299-1.498-2.299-3.734 0-2.336 0.422-4.22 2.44-4.22 1.341 0 2.062 0.617 2.062 1.895h-1.23c0-0.45-0.205-1.013-0.82-1.013-1.154 0-1.219 1.552-1.219 2.687l0.034 0.022c0.3-0.561 0.818-0.826 1.487-0.826 1.048 0 1.889 0.772 1.889 2.324 0 1.797-0.722 2.866-2.342 2.866zM48.696 25.514h-1.23v-1.453h1.23v1.453zM52.288 25.669c-1.469 0-2.289-0.947-2.289-3.978 0-3.028 0.82-3.977 2.289-3.977 1.467 0 2.287 0.949 2.287 3.977 0.001 3.031-0.82 3.978-2.287 3.978zM57.109 25.514h-1.23v-1.453h1.23v1.453zM60.702 25.669c-1.47 0-2.288-0.947-2.288-3.978 0-3.028 0.818-3.977 2.288-3.977 1.468 0 2.288 0.949 2.288 3.977 0 3.031-0.82 3.978-2.288 3.978z"
       id="path349" />
    <path
       fill="rgb(255, 255, 255)"
       d="M60.702 35.375c1.468 0 2.288 0.947 2.288 3.978 0 3.028-0.82 3.977-2.288 3.977-1.47 0-2.288-0.949-2.288-3.977 0-3.032 0.818-3.978 2.288-3.978zM55.879 41.72h1.23v1.454h-1.23v-1.454zM50.345 36.697h0.119c0.734 0 1.586-0.177 1.804-1.168v-0.154h0.894v7.8h-1.23v-5.663h-1.586v-0.815zM47.466 41.72h1.23v1.454h-1.23v-1.454zM43.991 35.375c1.341 0 2.062 0.617 2.062 1.895h-1.23c0-0.451-0.205-1.015-0.82-1.015-1.154 0-1.219 1.554-1.219 2.688l0.034 0.023c0.3-0.562 0.818-0.826 1.487-0.826 1.048 0 1.889 0.77 1.889 2.324 0 1.796-0.722 2.865-2.342 2.865-1.932 0-2.299-1.499-2.299-3.735 0-2.335 0.422-4.218 2.44-4.218zM36.429 36.697h0.118c0.734 0 1.586-0.177 1.803-1.168v-0.154h0.894v7.8h-1.23v-5.663h-1.586v-0.815zM33.55 41.72h1.23v1.454h-1.23v-1.454zM29.979 36.255c-0.918 0-1.067 0.838-1.067 1.632h-1.167c0-1.554 0.626-2.513 2.256-2.513 1.566 0 2.159 0.947 2.159 2.082 0 2.589-2.484 2.754-3.066 4.659h3.098v1.059h-4.469c0-3.394 3.206-3.316 3.206-5.741 0-0.638-0.27-1.178-0.95-1.178zM22.189 35.529h4.534v0.991c-1.198 1.597-2.234 4.309-2.407 6.654h-1.295c0.173-2.325 1.295-4.925 2.514-6.523h-3.346v-1.122zM17.011 36.697h0.119c0.734 0 1.587-0.177 1.802-1.168v-0.154h0.894v7.8h-1.23v-5.663h-1.586v-0.815z"
       id="path351" />
    <path
       fill="rgb(255, 255, 255)"
       d="M60.702 52.277c1.468 0 2.288 0.948 2.288 3.977s-0.82 3.978-2.288 3.978c-1.47 0-2.288-0.949-2.288-3.978s0.818-3.977 2.288-3.977zM55.879 58.622h1.23v1.454h-1.23v-1.454zM52.309 53.158c-0.917 0-1.067 0.838-1.067 1.63h-1.166c0-1.554 0.625-2.512 2.254-2.512 1.564 0 2.158 0.948 2.158 2.083 0 2.587-2.482 2.753-3.066 4.659h3.1v1.058h-4.47c0-3.393 3.206-3.317 3.206-5.741 0-0.637-0.269-1.178-0.95-1.178zM47.466 58.622h1.23v1.454h-1.23v-1.454zM43.991 52.277c1.341 0 2.062 0.617 2.062 1.894h-1.23c0-0.452-0.205-1.014-0.82-1.014-1.154 0-1.219 1.553-1.219 2.687l0.034 0.023c0.3-0.562 0.818-0.827 1.487-0.827 1.048 0 1.889 0.773 1.889 2.324 0 1.797-0.722 2.866-2.342 2.866-1.932 0-2.299-1.5-2.299-3.736 0-2.334 0.422-4.218 2.44-4.218zM36.429 53.598h0.118c0.734 0 1.586-0.176 1.803-1.167v-0.154h0.894v7.8h-1.23v-5.663h-1.586v-0.815zM33.55 58.622h1.23v1.454h-1.23v-1.454zM29.979 53.158c-0.918 0-1.067 0.838-1.067 1.63h-1.167c0-1.554 0.626-2.512 2.256-2.512 1.566 0 2.159 0.948 2.159 2.083 0 2.587-2.484 2.753-3.066 4.659h3.098v1.058h-4.469c0-3.393 3.206-3.317 3.206-5.741 0-0.637-0.27-1.178-0.95-1.178zM22.189 52.431h4.534v0.991c-1.198 1.596-2.234 4.307-2.407 6.654h-1.295c0.173-2.324 1.295-4.924 2.514-6.522h-3.346v-1.122zM17.011 53.598h0.119c0.734 0 1.587-0.176 1.802-1.167v-0.154h0.894v7.8h-1.23v-5.663h-1.586v-0.815z"
       id="path353" />
    <path
       fill="rgb(245, 133, 54)"
       d="M52.288 18.711c-0.843 0-1.058 0.826-1.058 3.095s0.215 3.095 1.058 3.095 1.056-0.826 1.056-3.095c0.001-2.269-0.214-3.095-1.056-3.095z"
       id="path355" />
    <path
       fill="rgb(245, 133, 54)"
       d="M60.702 18.711c-0.842 0-1.058 0.826-1.058 3.095s0.217 3.095 1.058 3.095 1.058-0.826 1.058-3.095c0-2.269-0.216-3.095-1.058-3.095z"
       id="path357" />
    <path
       fill="rgb(245, 133, 54)"
       d="M60.702 42.562c0.842 0 1.058-0.826 1.058-3.095 0-2.27-0.217-3.096-1.058-3.096-0.842 0-1.058 0.826-1.058 3.096 0 2.269 0.216 3.095 1.058 3.095z"
       id="path359" />
    <path
       fill="rgb(245, 133, 54)"
       d="M43.95 42.562c0.754 0 1.013-0.761 1.013-1.676 0-1.079-0.313-1.685-1.013-1.685-0.897 0-1.059 0.805-1.059 1.742-0.001 0.902 0.335 1.618 1.059 1.618z"
       id="path361" />
    <path
       fill="rgb(245, 133, 54)"
       d="M60.702 59.464c0.842 0 1.058-0.826 1.058-3.095s-0.217-3.097-1.058-3.097c-0.842 0-1.058 0.826-1.058 3.097s0.216 3.095 1.058 3.095z"
       id="path363" />
    <path
       fill="rgb(245, 133, 54)"
       d="M43.95 59.464c0.754 0 1.013-0.76 1.013-1.675 0-1.079-0.313-1.686-1.013-1.686-0.897 0-1.059 0.806-1.059 1.741-0.001 0.903 0.335 1.62 1.059 1.62z"
       id="path365" />
    <path
       fill="rgb(245, 133, 54)"
       d="M43.95 24.902c0.754 0 1.013-0.76 1.013-1.675 0-1.079-0.313-1.684-1.013-1.684-0.897 0-1.059 0.804-1.059 1.742-0.001 0.902 0.335 1.618 1.059 1.618z"
       id="path367" />
  </svg>
  <svg
     id="awsicon-AWSVPCSubnet"
     width="80"
     height="80"
     viewBox="0 0 80 80"
     x="1200"
     y="0"
     version="1.1">
    <path
       fill="rgb(245, 133, 54)"
       d="M51.723 62.8h-5.714v-2.4h5.714c1.149 0 2.261-0.227 3.307-0.677l0.947 2.206c-1.347 0.578-2.778 0.87-4.254 0.87zM44.41 62.8h-9.6v-2.4h9.6v2.4zM33.21 62.8h-4.847c-1.79 0-3.565-0.448-5.131-1.294l1.142-2.111c1.217 0.658 2.596 1.006 3.99 1.006h4.847v2.4zM57.564 61.086l-1.3-2.017c2.417-1.556 3.859-4.199 3.859-7.069v-8.186h2.4v8.186c0 3.69-1.854 7.086-4.959 9.086zM21.728 60.521c-2.646-2.063-4.165-5.17-4.165-8.521v-0.868h2.4v0.868c0 2.607 1.181 5.022 3.24 6.629l-1.475 1.892zM19.963 49.532h-2.4v-9.6h2.4v9.6zM62.523 42.214h-2.4v-9.6h2.4v9.6zM19.963 38.332h-2.4v-9.6h2.4v9.6zM62.523 31.014h-2.4v-2.375c0-2.14-0.805-4.178-2.266-5.739l1.751-1.641c1.88 2.007 2.915 4.629 2.915 7.38v2.375zM20.066 27.325l-2.371-0.372c0.572-3.645 2.934-6.711 6.32-8.202l0.967 2.196c-2.634 1.16-4.471 3.544-4.916 6.378zM56.818 21.961c-1.473-1.126-3.235-1.722-5.095-1.722h-3.339v-2.4h3.339c2.392 0 4.658 0.766 6.553 2.215l-1.458 1.906zM26.302 20.494l-0.586-2.327c0.861-0.217 1.751-0.327 2.647-0.327h7.221v2.4h-7.221c-0.698 0-1.392 0.086-2.061 0.254zM46.784 20.239h-9.6v-2.4h9.6v2.4z"
       id="path372" />
  </svg>
  <svg
     id="awsicon-AWSVPCVPC"
     width="80"
     height="80"
     viewBox="0 0 80 80"
     x="1280"
     y="0"
     version="1.1">
    <path
       fill="rgb(245, 133, 54)"
       d="M47.592 44.012l-24.69 1.99v14.248l24.69-6.701z"
       id="path375" />
    <path
       fill="rgb(245, 133, 54)"
       d="M34.842 39.983h-12.033v-20.221l12.033 3.254z"
       id="path377" />
    <path
       fill="rgb(107, 58, 25)"
       d="M35.22 26.506l9.416-2.402 16.144 4.843-8.642 1.216z"
       id="path379" />
    <path
       fill="rgb(245, 133, 54)"
       d="M47.105 39.983h-7.136v-28.8l7.136 3.568z"
       id="path381" />
    <path
       fill="rgb(245, 133, 54)"
       d="M60.78 39.983h3.046v-16.87l-3.046-1.524z"
       id="path383" />
    <path
       fill="rgb(245, 133, 54)"
       d="M63.826 29.861l-23.858-7.156v-11.522l23.858 11.93z"
       id="path385" />
    <path
       fill="rgb(157, 80, 37)"
       d="M27.269 39.983h12.7v-28.8l-12.7 6.35z"
       id="path387" />
    <path
       fill="rgb(157, 80, 37)"
       d="M22.81 19.794l-6.636 3.351v16.87h6.636z"
       id="path389" />
    <path
       fill="rgb(157, 80, 37)"
       d="M52.18 39.983h8.6v-11.036l-8.6 1.21z"
       id="path391" />
    <path
       fill="rgb(245, 133, 54)"
       d="M63.826 45.014l-23.858 3.557v20.212l23.858-11.93z"
       id="path393" />
    <path
       fill="rgb(157, 80, 37)"
       d="M27.269 46.736l12.7 1.901v20.179l-12.7-6.35z"
       id="path395" />
    <path
       fill="rgb(157, 80, 37)"
       d="M16.174 45.075l6.728 0.991v14.217l-6.728-3.365z"
       id="path397" />
    <path
       fill="rgb(251, 191, 147)"
       d="M63.826 45.014l-11.472-0.709-25.086 2.398 12.587 1.883z"
       id="path399" />
    <path
       fill="rgb(251, 191, 147)"
       d="M47.592 44.012l-7.567-0.467-23.851 1.482 6.728 1.008z"
       id="path401" />
  </svg>
</svg>
